<svg width="129" height="111" viewBox="0 0 129 111" fill="none" xmlns="http://www.w3.org/2000/svg">
<path d="M128.691 41.133C126.983 28.561 115.965 22.664 115.965 22.664L120.931 22.354C116.74 15.677 107.893 16.919 107.893 16.919C107.893 16.919 112.548 14.902 114.101 13.66C115.652 12.418 112.083 11.333 112.083 11.333C104.012 10.088 93.924 14.127 93.924 14.127C93.924 14.127 92.837 2.795 91.13 1.862C89.422 0.934002 88.024 12.264 88.024 12.264C83.525 2.48401 67.38 -1.552 71.727 1.862C76.074 5.279 75.919 10.555 75.919 10.555C75.919 10.555 63.656 1.70901 39.754 4.50101C15.853 7.29501 -1.37597 31.82 2.34903 30.266C6.07403 28.714 11.817 28.714 11.817 28.714C0.951032 34.612 -1.68597 46.255 1.57303 43.771C4.83203 41.289 10.886 39.269 10.886 39.269C8.71203 39.735 1.72802 51.22 2.97102 52.307C4.21202 53.392 11.352 49.203 11.352 49.203C11.972 60.688 18.646 75.433 18.646 75.433C18.646 75.433 20.975 67.052 20.198 63.172C19.423 59.29 16.472 48.893 18.646 45.942C18.646 45.942 18.803 49.045 22.217 47.497C25.63 45.942 33.859 39.111 33.859 39.111C33.859 39.111 27.493 46.255 32.151 46.097C36.805 45.942 54.034 36.166 54.034 36.166C54.034 36.166 47.828 43.457 52.795 43.614C57.759 43.769 81.042 33.059 81.042 33.059C81.042 33.059 76.232 42.217 82.128 40.507C88.025 38.802 90.509 33.525 90.509 33.525C90.509 33.525 97.34 51.062 99.513 48.89C101.686 46.717 102.617 38.491 102.617 38.491L105.721 46.095C105.721 46.095 104.326 55.253 105.721 60.375C106.966 64.937 107.592 70.475 107.823 73.608C114.839 65.864 120.016 48.433 121.399 49.199C122.795 49.974 123.88 48.577 123.88 48.577C123.88 44.389 120.776 39.419 120.776 39.419C120.776 39.419 126.832 42.216 127.918 42.216C129.001 42.221 128.691 41.133 128.691 41.133Z" fill="#9F3900"/>
<path opacity="0.4" d="M90.213 18.66C89.699 13.175 89.548 7.74998 90.333 2.27498C89.009 4.28998 88.024 12.265 88.024 12.265C85.338 6.42898 78.508 2.63998 74.36 1.25598C81.061 5.43498 85.933 11.91 90.213 18.66Z" fill="#9F3900"/>
<path opacity="0.4" d="M93.432 19.548C95.619 16.367 99.394 14.413 102.992 13.117C105.094 12.36 107.313 11.623 109.57 11.121C102.062 10.883 93.925 14.128 93.925 14.128C93.925 14.128 93.347 8.162 92.377 4.535C92.186 9.571 92.481 14.564 93.432 19.548Z" fill="#9F3900"/>
<path opacity="0.4" d="M128.691 41.133C126.983 28.561 115.965 22.664 115.965 22.664L120.931 22.354C120.598 21.827 120.232 21.368 119.85 20.938C115.687 19.777 110.992 19.027 106.721 19.786C109.467 21.38 112.057 23.217 114.506 25.432C117.067 27.752 121.783 31.369 121.165 35.33C120.752 37.961 117.522 36.318 116.382 35.472C114.943 34.399 113.573 33.158 112.189 31.933C112.673 33.013 113.133 34.107 113.538 35.257C114.313 37.482 116.631 42.964 113.214 44.26C110.387 45.331 106.275 38.171 105.161 36.564C103.738 34.512 102.4 32.398 101.066 30.281C101.105 30.95 101.144 31.619 101.19 32.287C101.315 34.057 101.824 37.698 99.846 38.822C96.593 40.666 93.648 31.567 92.254 25.89C91.663 26.573 91.077 27.26 90.535 27.977C88.854 30.184 86.608 33.649 83.635 34.158C81.317 34.558 82.273 30.798 83.759 27.068C82.559 27.637 81.384 28.176 80.304 28.706C76.368 30.633 72.307 32.169 68.298 33.921C66.067 34.897 63.89 36.19 61.387 35.982C57.798 35.688 61.214 31.032 62.158 30.009C62.33 29.82 62.512 29.641 62.688 29.46C61.676 29.944 60.663 30.432 59.665 30.941C54.464 33.594 48.874 37.441 42.935 38.165C40.186 38.498 37.811 37.839 40.174 34.987C41.993 32.792 43.988 30.781 46.059 28.854C43.64 30.193 41.181 31.47 38.705 32.743C32.124 36.125 25.594 39.579 18.32 41.217C15.784 41.788 12.973 41.182 14.959 38.172C15.951 36.671 17.106 35.329 18.339 34.057C17.18 34.427 16.027 34.811 14.907 35.253C13.361 35.863 11.815 36.502 10.138 36.541C6.66802 36.627 10.272 31.871 11.004 31.091C13.613 28.316 17.276 25.385 21.015 23.448C17.696 23.71 14.299 24.257 11.278 25.336C7.96202 26.52 4.94601 28.272 1.86401 29.928C1.80701 30.291 1.95302 30.435 2.34702 30.268C6.07201 28.716 11.815 28.716 11.815 28.716C0.949018 34.614 -1.68799 46.257 1.57101 43.773C4.83001 41.291 10.884 39.271 10.884 39.271C8.71002 39.737 1.72601 51.222 2.96901 52.309C4.21001 53.394 11.35 49.205 11.35 49.205C11.97 60.69 18.644 75.435 18.644 75.435C18.644 75.435 20.973 67.054 20.196 63.174C19.421 59.292 16.47 48.895 18.644 45.944C18.644 45.944 18.801 49.047 22.215 47.499C25.628 45.944 33.857 39.113 33.857 39.113C33.857 39.113 27.491 46.257 32.149 46.099C36.803 45.944 54.032 36.168 54.032 36.168C54.032 36.168 47.826 43.459 52.793 43.616C57.757 43.771 81.04 33.061 81.04 33.061C81.04 33.061 76.23 42.219 82.126 40.509C88.023 38.804 90.507 33.527 90.507 33.527C90.507 33.527 97.338 51.064 99.511 48.892C101.684 46.719 102.615 38.493 102.615 38.493L105.719 46.097C105.719 46.097 104.324 55.255 105.719 60.377C106.964 64.939 107.59 70.477 107.821 73.61C114.837 65.866 120.014 48.435 121.397 49.201C122.793 49.976 123.878 48.579 123.878 48.579C123.878 44.391 120.774 39.421 120.774 39.421C120.774 39.421 126.83 42.218 127.916 42.218C129.001 42.221 128.691 41.133 128.691 41.133Z" fill="#9F3900"/>
<path d="M22.061 66.896C22.061 66.896 18.957 62.861 14.457 65.501C9.95603 68.141 11.001 77.644 14.145 79.471C17.482 81.409 21.595 81.333 21.595 81.333L22.061 66.896Z" fill="#EFCAA6"/>
<path d="M105.875 64.569C105.875 64.569 108.823 61.776 112.549 63.792C116.275 65.813 117.051 72.332 113.171 75.124C109.289 77.921 105.719 76.212 105.719 76.212L105.875 64.569Z" fill="#EFCAA6"/>
<path d="M105.719 46.1L102.615 38.496C102.615 38.496 101.684 46.722 99.511 48.895C97.338 51.067 90.507 33.53 90.507 33.53C90.507 33.53 88.024 38.806 82.126 40.512C76.23 42.222 81.04 33.064 81.04 33.064C81.04 33.064 57.757 43.774 52.793 43.619C47.826 43.462 54.032 36.171 54.032 36.171C54.032 36.171 36.803 45.946 32.149 46.102C27.491 46.259 33.857 39.116 33.857 39.116C33.857 39.116 25.628 45.947 22.215 47.502C18.801 49.05 18.644 45.947 18.644 45.947C16.47 48.897 19.42 59.295 20.196 63.177C20.973 67.057 18.644 75.438 18.644 75.438C18.644 75.438 14.299 87.388 25.628 98.409C40.736 113.105 66.914 112.225 87.247 105.24C107.581 98.256 107.581 73.888 107.581 73.888C107.659 73.8 107.741 73.704 107.819 73.617C107.588 70.483 106.962 64.945 105.717 60.384C104.324 55.258 105.719 46.1 105.719 46.1Z" fill="#F4D9BF"/>
<path d="M17.235 73.723C16.934 72.853 16.42 71.449 15.529 70.982C14.074 70.209 13.175 72.032 13.584 73.279C13.59 73.298 13.627 73.272 13.622 73.254C13.477 72.495 14.056 70.545 15.275 71.315C15.875 71.697 16.216 72.64 16.513 73.258C16.791 73.833 16.941 74.445 17.06 75.067C16.99 75.263 16.928 75.462 16.835 75.655C16.418 76.529 15.959 76.039 15.396 75.951C15.371 75.944 15.339 75.995 15.368 76.009C15.86 76.208 16.177 76.643 16.708 76.284C16.891 76.166 17.051 75.963 17.184 75.74C17.294 76.515 17.363 77.301 17.5 78.058C17.531 78.234 17.76 78.083 17.774 77.97C17.946 76.575 17.689 75.05 17.235 73.723Z" fill="#C39368"/>
<path d="M113.365 68.393C112.666 67.783 111.756 68.192 111.109 68.641C110.096 69.351 109.449 70.581 109.193 71.87C109.148 71.912 109.107 71.956 109.089 72.007C109.002 72.23 109.019 72.416 109.091 72.576C109.033 73.27 109.075 73.95 109.257 74.552C109.299 74.689 109.461 74.579 109.474 74.483C109.538 74.018 109.603 73.548 109.676 73.084C109.89 73.181 110.122 73.243 110.328 73.273C111.084 73.384 111.954 73.123 112.422 72.501C112.446 72.466 112.41 72.434 112.379 72.459C111.881 72.875 111.207 72.861 110.622 72.67C110.283 72.557 110.074 72.362 109.852 72.163C109.934 71.783 110.028 71.411 110.15 71.048C110.366 70.414 110.777 69.85 111.219 69.362C111.699 68.833 112.298 68.664 113.02 68.848C113.205 68.902 113.684 69.077 113.678 69.314C113.678 69.353 113.724 69.341 113.739 69.318C113.962 68.943 113.653 68.641 113.365 68.393Z" fill="#C39368"/>
<path d="M36.793 52.405C33.442 52.9 31.867 57.037 32.875 60.106C32.898 60.169 32.98 60.087 32.979 60.043C32.909 58.317 33.48 56.527 34.245 54.993C35.482 52.502 38.417 53.467 40.028 54.677C42.051 56.195 43.176 58.257 44.264 60.486C44.353 60.669 44.604 60.423 44.558 60.27C43.533 56.975 41.197 51.751 36.793 52.405Z" fill="#4C1B00"/>
<path d="M75.236 46.37C70.879 46.877 68.648 52.846 68.785 56.53C68.789 56.623 68.917 56.537 68.927 56.484C69.74 52.276 73.071 45.873 78.275 48.484C81.065 49.886 82.594 52.944 83.706 55.718C83.802 55.965 84.164 55.653 84.137 55.465C83.453 50.899 80.498 45.755 75.236 46.37Z" fill="#4C1B00"/>
<path d="M42.604 69.783C42.672 72.026 42.012 73.868 41.125 73.898C40.238 73.939 39.459 72.149 39.387 69.912C39.322 67.673 39.986 65.825 40.871 65.79C41.756 65.758 42.532 67.546 42.604 69.783Z" fill="#673121"/>
<path d="M40.71 68.156C40.682 68.837 40.442 69.373 40.173 69.362C39.903 69.343 39.709 68.786 39.738 68.105C39.765 67.43 40.008 66.893 40.28 66.907C40.549 66.922 40.738 67.482 40.71 68.156Z" fill="white"/>
<path d="M77.912 67.144C77.982 69.385 77.321 71.232 76.437 71.264C75.547 71.301 74.769 69.513 74.698 67.276C74.632 65.037 75.293 63.191 76.181 63.156C77.065 63.118 77.842 64.906 77.912 67.144Z" fill="#673121"/>
<path d="M76.022 65.518C75.991 66.201 75.752 66.737 75.483 66.725C75.213 66.705 75.0201 66.149 75.0491 65.471C75.0741 64.793 75.3191 64.254 75.5881 64.269C75.8551 64.282 76.051 64.842 76.022 65.518Z" fill="white"/>
<path d="M61.083 84.738C59.674 85.414 58.324 85.825 56.796 85.249C55.549 84.784 54.471 83.445 54.114 82.198C53.729 80.843 54.568 79.085 56.081 79.024C57.394 78.973 58.771 79.47 59.84 80.188C59.856 80.197 59.884 80.176 59.877 80.153C59.461 79.36 58.818 78.774 58.097 78.416C59.576 76.949 59.148 73.091 57.463 72.149C57.442 72.137 57.411 72.176 57.43 72.195C58.957 73.466 58.475 76.53 57.579 78.196C55.695 77.56 53.52 78.365 53.329 80.949C53.209 82.592 54.43 84.395 55.779 85.223C57.598 86.343 59.386 85.948 61.133 84.9C61.22 84.847 61.2 84.681 61.083 84.738Z" fill="#C39368"/>
<path d="M46.145 89.559C51.214 92.835 55.55 97.083 62.219 95.998C68.037 95.047 73.808 91.79 77.216 86.934C77.421 86.638 78.196 86.208 78.485 86.64C78.588 86.79 78.664 86.936 78.753 87.082C78.895 87.155 79.067 87.167 79.302 87.07C79.449 87.011 79.566 86.854 79.588 86.7C79.638 86.339 79.488 85.948 79.33 85.631C79.086 85.152 78.766 85.055 78.264 84.975C77.751 84.896 77.132 85.065 76.633 85.187C76.487 85.224 76.345 85.278 76.205 85.34C76.181 85.352 76.129 85.399 76.1 85.437C76.088 85.442 76.076 85.455 76.05 85.474C75.978 85.523 76.016 85.634 76.1 85.574C76.276 85.459 76.647 85.588 76.834 85.628C77.061 85.679 77.372 85.727 77.645 85.826C69.515 92.863 51.853 96.424 44.362 87.048C44.341 87.023 44.286 87.071 44.305 87.099C44.834 87.971 45.441 88.716 46.099 89.369C46.116 89.43 46.129 89.494 46.145 89.559Z" fill="#C39368"/>
<path d="M74.928 97.686C71.921 102.322 66.976 103.782 61.756 103.858C57.031 103.925 52.939 101.931 49.945 98.369C48.449 96.59 47.425 94.515 46.829 92.278C46.599 91.415 46.619 90.448 46.341 89.606C49.959 93.004 55.205 93.517 60.289 93.131C63.849 92.862 67.523 91.942 70.838 90.633C73.049 89.758 76.207 88.294 77.928 86.305C78.079 90.299 77.103 94.329 74.928 97.686Z" fill="#F6B9C6"/>
<path d="M53.692 97.216C57.031 98.399 60.422 98.215 63.875 97.811C67.986 97.333 73.268 96.442 74.709 91.762C75.055 90.635 75.272 89.504 75.427 88.37C73.908 89.337 72.195 90.098 70.838 90.633C67.524 91.942 63.849 92.863 60.289 93.131C56.335 93.432 52.292 93.165 48.979 91.446C49.909 93.892 51.171 96.318 53.692 97.216Z" fill="white"/>
<path d="M67.009 99.314C62.838 99.279 58.615 99.943 55.293 102.51C57.257 103.417 59.431 103.887 61.756 103.857C65.897 103.794 69.86 102.86 72.824 100.163C71.01 99.402 68.56 99.323 67.009 99.314Z" fill="#FD7072"/>
</svg>
