<svg width="115" height="108" viewBox="0 0 115 108" fill="none" xmlns="http://www.w3.org/2000/svg">
<path d="M90.039 62.051C90.039 62.051 82.597 70.08 81.421 68.71C80.247 67.338 89.647 49.513 89.647 49.513C89.647 49.513 83.774 55.784 82.989 55.586C82.206 55.389 83.774 37.368 83.774 37.368C83.774 37.368 83.774 37.368 77.701 44.224C71.63 51.08 71.236 45.988 71.236 35.018C55.173 47.946 56.348 41.675 61.441 27.182C36.371 35.018 35.389 33.647 42.049 26.987C23.44 34.627 21.346 31.093 21.346 31.093C21.346 31.093 16.281 35.81 15.408 45.767C14.535 53.275 -5.202 64.802 2.833 84.365C10.167 99.036 28.117 112.591 57.915 105.142C91.02 92.604 90.039 62.051 90.039 62.051Z" fill="#F4D9BF"/>
<path d="M96.951 67.343C94.362 64.646 91.515 65.657 89.699 66.841C89.236 70.283 88.152 75.243 85.63 80.6C95.772 86.573 100.948 71.509 96.951 67.343Z" fill="#F4D9BF"/>
<path d="M63.501 1.23C38.546 -1.193 13.778 12.959 10.055 18.361C10.055 18.361 16.758 17.989 22.345 19.106C10.241 29.536 8.75201 34.563 10.426 35.494C12.101 36.426 21.346 31.094 21.346 31.094C21.346 31.094 23.44 34.627 42.049 26.988C35.389 33.648 36.37 35.019 61.441 27.183C56.348 41.676 55.173 47.947 71.236 35.019C71.236 45.989 71.629 51.082 77.701 44.225C83.774 37.369 83.774 37.369 83.774 37.369C83.774 37.369 82.206 55.39 82.989 55.587C83.774 55.784 89.647 49.514 89.647 49.514C89.647 49.514 80.248 67.339 81.421 68.711C82.597 70.081 90.039 62.052 90.039 62.052C90.039 62.052 90.095 63.89 89.699 66.842C91.515 65.657 94.362 64.647 96.951 67.344C100.948 71.51 95.771 86.575 85.63 80.601C81.483 89.405 73.455 99.259 57.915 105.144C78.214 108.309 108.011 92.296 113.035 63.991C118.066 35.68 105.589 5.511 63.501 1.23Z" fill="#925F2D"/>
<path d="M47.029 62.915C45.87 62.315 44.71 61.754 43.535 61.36C42.952 61.156 42.362 60.999 41.792 60.96C41.651 60.94 41.511 60.922 41.376 60.931C41.241 60.943 41.1 60.916 40.977 60.951C40.716 60.975 40.493 61.062 40.276 61.148L37.004 62.429L39.484 60.004C39.874 59.619 40.254 59.219 40.689 58.876C41.099 58.506 41.564 58.193 42.03 57.896C42.512 57.616 43.005 57.35 43.526 57.135C43.779 57.015 44.059 56.953 44.325 56.861C44.591 56.766 44.876 56.724 45.15 56.659C45.704 56.542 46.284 56.518 46.856 56.552C47.427 56.58 47.998 56.722 48.529 56.939C48.786 57.084 49.059 57.167 49.281 57.362C49.516 57.528 49.733 57.707 49.916 57.925C50.122 58.117 50.255 58.371 50.4 58.6C50.542 58.829 50.608 59.105 50.708 59.345C50.364 58.932 50.02 58.553 49.591 58.301C49.395 58.152 49.173 58.048 48.947 57.962C48.734 57.854 48.484 57.822 48.265 57.747C47.331 57.557 46.363 57.667 45.444 57.929C44.98 58.053 44.531 58.242 44.094 58.445C43.65 58.644 43.228 58.887 42.812 59.146C42.412 59.431 41.998 59.695 41.617 60.013C41.216 60.305 40.871 60.665 40.498 60.995L39.706 59.853C40.099 59.718 40.493 59.625 40.881 59.619C41.078 59.595 41.259 59.635 41.446 59.639C41.637 59.646 41.813 59.68 41.991 59.719C42.694 59.877 43.336 60.139 43.93 60.462C45.113 61.11 46.152 61.936 47.029 62.915Z" fill="#C39368"/>
<path d="M12.464 59.238C13.037 58.869 13.701 58.627 14.4 58.519C14.754 58.466 15.113 58.451 15.48 58.479C15.84 58.519 16.216 58.568 16.567 58.705C16.75 58.756 16.922 58.834 17.088 58.925C17.254 59.015 17.436 59.088 17.585 59.205C17.903 59.415 18.196 59.659 18.444 59.944C18.965 60.492 19.341 61.136 19.643 61.799L18.258 62.009C18.261 61.571 18.313 61.132 18.281 60.698C18.281 60.262 18.264 59.832 18.211 59.406C18.158 58.982 18.089 58.558 17.981 58.151C17.928 57.95 17.89 57.736 17.809 57.545C17.731 57.355 17.68 57.142 17.58 56.964C17.41 56.584 17.216 56.213 16.961 55.892C16.716 55.561 16.428 55.263 16.092 55.014C15.752 54.776 15.379 54.559 14.959 54.452C14.751 54.381 14.534 54.339 14.308 54.321C14.082 54.277 13.857 54.307 13.618 54.299C13.836 54.224 14.053 54.1 14.294 54.065C14.53 54.009 14.774 53.98 15.024 53.985C15.518 53.987 16.03 54.093 16.493 54.307C16.952 54.524 17.401 54.803 17.758 55.172C18.131 55.528 18.445 55.94 18.702 56.376C18.848 56.591 18.931 56.827 19.046 57.055C19.163 57.284 19.232 57.52 19.319 57.759C19.408 57.996 19.475 58.238 19.519 58.483C19.566 58.726 19.634 58.969 19.655 59.215C19.723 59.703 19.774 60.193 19.767 60.682C19.787 61.173 19.719 61.653 19.697 62.138L19.562 65.069L18.31 62.348C18.058 61.801 17.824 61.242 17.453 60.794C17.282 60.555 17.081 60.354 16.868 60.156C16.771 60.046 16.642 59.982 16.53 59.893C16.413 59.802 16.291 59.723 16.158 59.664C15.132 59.088 13.787 59.006 12.464 59.238Z" fill="#C39368"/>
<path d="M23.276 74.602C23.276 74.602 22.883 74.011 22.592 73.016C22.444 72.52 22.319 71.923 22.307 71.235C22.311 70.892 22.323 70.511 22.449 70.104C22.579 69.71 22.876 69.151 23.512 68.916C24.209 68.755 24.494 68.874 25.076 69.175C25.492 69.445 25.707 69.815 25.89 70.135C26.23 70.792 26.324 71.414 26.369 71.939C26.458 72.987 26.255 73.672 26.255 73.672C26.255 73.672 25.969 73.065 25.542 72.154C25.327 71.727 25.084 71.222 24.774 70.82C24.624 70.621 24.438 70.47 24.301 70.387C24.331 70.37 23.928 70.279 23.983 70.327C23.983 70.327 23.891 70.367 23.805 70.575C23.736 70.792 23.648 71.046 23.612 71.323C23.524 71.872 23.481 72.435 23.437 72.924C23.371 73.9 23.276 74.602 23.276 74.602Z" fill="#C39368"/>
<path d="M15.408 45.768C15.408 45.768 15.335 44.858 15.654 43.538C15.812 42.883 16.061 42.117 16.525 41.35C16.965 40.595 17.709 39.754 18.871 39.465C19.451 39.337 20.046 39.439 20.534 39.616C21.048 39.783 21.43 40.097 21.787 40.378C22.471 40.972 22.941 41.626 23.287 42.208C23.634 42.79 23.865 43.299 23.999 43.668C24.139 44.035 24.208 44.248 24.208 44.248C24.208 44.248 24.035 44.1 23.756 43.832C23.483 43.57 23.09 43.194 22.621 42.744C22.152 42.314 21.603 41.825 21 41.427C20.387 41.042 19.73 40.78 19.183 40.92C18.626 41.026 18.059 41.518 17.604 42.096C17.139 42.666 16.771 43.303 16.447 43.85C15.823 45 15.408 45.768 15.408 45.768Z" fill="#C39368"/>
<path d="M40.966 44.807C40.966 44.807 41.115 44.515 41.449 44.048C41.779 43.574 42.308 42.942 43.066 42.282C43.454 41.959 43.882 41.614 44.405 41.335C44.653 41.174 44.926 41.041 45.225 40.931C45.522 40.822 45.81 40.662 46.145 40.618C46.48 40.558 46.816 40.497 47.157 40.436C47.509 40.444 47.867 40.457 48.228 40.486C48.597 40.474 48.924 40.661 49.279 40.744C49.634 40.848 49.98 40.966 50.272 41.174L51.176 41.753C51.444 41.978 51.676 42.233 51.924 42.471C52.453 42.926 52.81 43.482 53.15 44.015C53.517 44.531 53.83 45.05 54.036 45.583C54.275 46.101 54.483 46.594 54.669 47.05C54.855 47.505 54.944 47.955 55.053 48.335C55.152 48.72 55.236 49.057 55.304 49.333C55.424 49.889 55.493 50.205 55.493 50.205C55.493 50.205 55.324 49.926 55.027 49.439C54.888 49.194 54.72 48.895 54.528 48.553C54.33 48.215 54.147 47.82 53.897 47.414C53.632 47.018 53.35 46.591 53.072 46.133C52.811 45.66 52.451 45.229 52.089 44.785C51.916 44.56 51.736 44.332 51.555 44.101C51.365 43.88 51.13 43.712 50.926 43.504C50.711 43.312 50.51 43.092 50.284 42.913L49.556 42.475C49.33 42.292 49.067 42.206 48.806 42.126C48.54 42.063 48.297 41.888 48.019 41.905C47.75 41.885 47.483 41.854 47.215 41.814C46.945 41.84 46.675 41.87 46.412 41.896C46.144 41.896 45.896 42.033 45.636 42.077C45.374 42.133 45.126 42.216 44.892 42.33C44.41 42.514 43.97 42.746 43.562 42.97C42.762 43.446 42.102 43.899 41.664 44.246C41.215 44.59 40.966 44.807 40.966 44.807Z" fill="#C39368"/>
<path d="M50.077 85.577C50.571 82.267 50.274 79.791 49.71 79.847C38.163 83.042 28.197 82.901 22.185 82.303C23.287 86.337 28.227 95.091 50.077 85.577Z" fill="white"/>
<path d="M28.927 101.123C30.366 101.598 31.892 101.903 33.511 101.954C35.548 101.975 37.35 101.666 38.949 101.127C35.43 96.025 31.144 98.956 28.927 101.123Z" fill="#F28279"/>
<path d="M50.077 85.577C28.227 95.091 23.287 86.337 22.185 82.303C18.357 81.926 16.129 81.365 16.129 81.365C15.551 89.274 20.627 98.386 28.926 101.123C31.143 98.956 35.429 96.025 38.947 101.127C46.33 98.638 49.268 90.992 50.077 85.577Z" fill="#C53623"/>
<path d="M10.727 77.314C10.727 77.314 10.819 77.458 11.001 77.653C11.079 77.757 11.191 77.865 11.326 77.986C11.467 78.106 11.579 78.257 11.755 78.382C11.931 78.51 12.117 78.645 12.288 78.798C12.474 78.946 12.72 79.044 12.924 79.194C13.329 79.497 13.865 79.696 14.349 79.955C14.581 80.109 14.848 80.205 15.113 80.298C15.379 80.387 15.624 80.515 15.872 80.618C16.124 80.714 16.347 80.871 16.594 80.932C16.832 81.009 17.057 81.098 17.262 81.183C18.096 81.514 18.662 81.871 18.662 81.871C18.662 81.871 18.043 82.013 17.096 82.021C16.622 82.03 16.063 82.045 15.489 81.873C14.915 81.719 14.281 81.61 13.707 81.298C13.423 81.137 13.141 80.975 12.861 80.818C12.571 80.683 12.353 80.429 12.121 80.226C11.644 79.83 11.312 79.333 11.081 78.898C10.946 78.697 10.901 78.449 10.832 78.265C10.765 78.083 10.738 77.905 10.728 77.756C10.694 77.47 10.727 77.314 10.727 77.314Z" fill="#C39368"/>
<path d="M21.322 30.645C21.322 30.645 21.59 29.853 22.294 28.844C22.641 28.342 23.027 27.709 23.557 27.162C24.069 26.596 24.653 26.027 25.236 25.458C25.541 25.187 25.841 24.914 26.14 24.646C26.453 24.401 26.796 24.195 27.109 23.976C27.746 23.553 28.359 23.184 28.897 22.89C29.964 22.292 30.74 22.011 30.74 22.011C30.74 22.011 30.246 22.707 29.41 23.573C28.994 24.016 28.495 24.5 27.943 24.992C27.659 25.233 27.383 25.498 27.078 25.737C26.801 26.009 26.519 26.286 26.237 26.563C25.653 27.091 25.073 27.62 24.487 28.083C23.896 28.541 23.426 29.027 22.945 29.392C22.463 29.769 22.059 30.083 21.781 30.302C21.495 30.525 21.322 30.645 21.322 30.645Z" fill="#925F2D"/>
<path d="M90.692 72.951C91.909 71.863 94.068 71.323 95.235 72.719C95.335 72.841 95.208 73.021 95.065 72.941C93.409 72.019 92.249 72.922 91.137 74.177C90.642 74.741 90.231 75.394 89.897 76.057C89.608 76.637 89.465 77.312 89.129 77.857C89.022 78.032 88.786 78.016 88.682 77.85C87.714 76.341 89.657 73.887 90.692 72.951Z" fill="#C39368"/>
<g opacity="0.5">
<path d="M81.266 93.709C86.535 87.35 88.714 83.896 88.714 83.896C88.714 83.896 95.438 85.167 98.707 78.81C101.976 72.451 102.159 65.729 97.979 64.092C93.799 62.457 97.07 54.101 97.07 54.101C97.07 54.101 91.983 59.734 90.712 57.554C89.439 55.372 98.163 39.93 98.163 39.93C98.163 39.93 89.077 47.198 86.898 46.107C84.715 45.016 89.623 26.303 89.623 26.303C89.623 26.303 78.357 40.839 75.449 40.111C72.543 39.383 74.905 24.85 74.905 24.85C74.905 24.85 64.731 36.841 62.548 35.206C60.369 33.571 69.091 19.943 69.091 19.943C69.091 19.943 51.829 29.21 48.196 27.029C44.563 24.846 53.829 18.672 53.829 18.672C53.829 18.672 37.296 26.482 32.753 25.757C28.21 25.03 35.842 17.219 35.842 17.219C35.842 17.219 18.217 30.845 16.583 28.485C14.947 26.123 30.755 12.674 30.755 12.674C30.755 12.674 16.401 16.49 15.857 15.037C15.679 14.563 16.748 13.369 18.257 11.981C14.062 14.435 11.147 16.776 10.053 18.36C10.053 18.36 16.756 17.988 22.343 19.105C10.239 29.535 8.75 34.562 10.424 35.493C12.099 36.425 21.344 31.093 21.344 31.093C21.344 31.093 23.438 34.626 42.047 26.987C35.387 33.647 36.368 35.018 61.439 27.182C56.346 41.675 55.171 47.946 71.234 35.018C71.234 45.988 71.627 51.081 77.699 44.224C83.772 37.368 83.772 37.368 83.772 37.368C83.772 37.368 82.204 55.389 82.987 55.586C83.772 55.783 89.645 49.513 89.645 49.513C89.645 49.513 80.246 67.338 81.419 68.71C82.595 70.08 90.037 62.051 90.037 62.051C90.037 62.051 90.093 63.889 89.697 66.841C91.513 65.656 94.36 64.646 96.949 67.343C100.946 71.509 95.769 86.574 85.628 80.6C81.481 89.404 73.453 99.258 57.913 105.143C78.212 108.308 108.009 92.295 113.033 63.99C113.335 62.308 113.566 60.62 113.737 58.932C113.693 58.959 113.646 58.981 113.601 59.006C107.608 96.253 75.995 100.067 81.266 93.709Z" fill="#925F2D"/>
</g>
</svg>
