<svg width="114" height="110" viewBox="0 0 114 110" fill="none" xmlns="http://www.w3.org/2000/svg">
<path d="M112.982 72.858C111.553 59.236 105.458 54.577 105.816 44.901C106.175 35.221 105.099 16.586 78.577 8.34C52.057 0.0979967 15.14 52.426 15.14 52.426C12.989 75.008 26.251 106.905 61.374 109.057C96.498 111.208 114.417 86.479 112.982 72.858Z" fill="#F4D9BF"/>
<path d="M75.799 104.49C71.337 103.929 68.584 99.078 68.182 95.167C67.7 90.45 69.528 84.774 71.17 80.888C76.874 87.283 85.543 90.873 93.897 89.616C89.558 95.991 84.913 105.627 75.799 104.49Z" fill="#930323"/>
<path d="M81.034 93.988C83.579 93.328 85.472 91.606 87.089 89.595C81.054 88.711 75.325 85.545 71.17 80.888C70.194 83.199 69.162 86.148 68.58 89.148C71.352 92.664 76.846 95.067 81.034 93.988Z" fill="white"/>
<path d="M76.361 99.918C74.759 97.095 71.604 93.761 68.114 93.822C68.118 94.279 68.14 94.726 68.183 95.167C68.585 99.078 71.338 103.93 75.8 104.49C76.545 104.579 77.258 104.594 77.944 104.553C77.635 102.922 77.164 101.34 76.361 99.918Z" fill="#F4BAAE"/>
<path d="M24.906 13.54C6.62501 25.633 7.435 43.65 7.435 43.65L3.53501 40.149C4.20801 44.589 5.956 45.796 5.956 45.796C3.268 47.143 0.715004 50.907 0.715004 50.907C3.132 51.036 5.016 50.233 5.016 50.233C-5.604 65.417 5.54999 90.148 5.54999 90.148C5.54999 86.385 7.57001 80.339 7.57001 80.339C6.35901 85.581 6.76099 92.028 6.76099 92.028C9.44999 91.761 25.445 96.198 31.355 99.556C42.754 106.033 52.86 108.538 52.86 108.538C42.781 105.192 38.352 97.366 36.968 94.338C38.152 93.589 39.039 92.401 39.315 90.713C39.348 90.519 39.096 90.461 39.004 90.62C36.248 95.181 30.834 94.517 28.672 89.88C24.488 80.92 31.089 72.946 36.733 78.32C42.379 83.699 43.455 86.921 43.455 86.921C42.108 74.018 37.538 60.85 37.538 60.85L41.032 64.077C46.25 55.336 52.428 48.492 58.779 43.122C57.209 40.377 55.823 37.819 54.281 35.101C56.806 36.858 58.631 39.326 60.675 41.568C66.807 36.678 73.019 33.131 78.623 30.55C77.059 27.982 76.012 24.826 73.761 22.629C77.017 24.147 80.149 26.123 82.678 28.806C90.756 25.549 96.948 24.393 98.705 24.049C97.091 21.288 95.601 18.789 93.725 16.376C96.493 18.49 99.146 20.528 101.393 23.103C105.272 21.262 109.847 17.571 109.847 17.571C87.269 -11.19 43.184 1.44501 24.906 13.54Z" fill="#A93E16"/>
<path d="M88.395 12.047C90.567 15.014 93.076 17.75 94.721 21.067C94.865 21.357 94.762 21.778 94.4 21.856C90.213 22.74 85.715 24.259 81.431 23.005C77.736 21.922 74.517 19.771 70.976 18.323C72.664 21.128 75.156 24.068 74.748 27.376C74.35 30.611 69.514 31.675 67.048 32.49C63.613 33.62 59.749 35.833 56.013 34.69C54.463 34.215 53.076 33.367 51.97 32.175C52.879 34.561 53.428 36.978 51.63 39.19C49.002 42.409 44.643 43.209 41.063 44.92C34.961 47.829 28.052 50.507 23.385 44.901C23.738 49.829 24.917 56.385 21.256 59.887C21.067 60.07 20.679 60.12 20.496 59.887C17.71 56.309 16.365 51.555 16.309 47.015C14.276 48.894 12.308 50.83 9.85902 52.173C9.44702 52.399 8.94301 52.033 9.06501 51.568C9.41301 50.292 9.804 48.885 10.576 47.786C11.253 46.829 11.942 46.626 11.317 45.584C10.089 43.546 9.41601 41.255 9.21201 38.889C9.05401 37.076 9.07201 35.253 9.21601 33.439C7.24401 39.294 7.43601 43.651 7.43601 43.651L3.53602 40.15C4.20902 44.59 5.95701 45.797 5.95701 45.797C3.26901 47.144 0.716011 50.908 0.716011 50.908C3.13301 51.037 5.01701 50.234 5.01701 50.234C-5.60299 65.418 5.551 90.149 5.551 90.149C5.551 86.386 7.57102 80.34 7.57102 80.34C6.36002 85.582 6.762 92.029 6.762 92.029C9.451 91.762 25.446 96.199 31.356 99.557C42.755 106.034 52.861 108.539 52.861 108.539C42.782 105.193 38.353 97.367 36.969 94.339C38.153 93.59 39.04 92.402 39.316 90.714C39.349 90.52 39.097 90.462 39.005 90.621C36.249 95.182 30.835 94.518 28.673 89.881C24.489 80.921 31.09 72.947 36.734 78.321C42.38 83.7 43.456 86.922 43.456 86.922C42.109 74.019 37.539 60.851 37.539 60.851L41.033 64.078C46.251 55.337 52.429 48.493 58.78 43.123C57.21 40.378 55.824 37.82 54.282 35.102C56.807 36.859 58.632 39.327 60.676 41.569C66.808 36.679 73.02 33.132 78.624 30.551C77.06 27.983 76.013 24.827 73.762 22.63C77.018 24.148 80.15 26.124 82.679 28.807C90.757 25.55 96.949 24.394 98.706 24.05C97.092 21.289 95.602 18.79 93.726 16.377C96.494 18.491 99.147 20.529 101.394 23.104C102.271 22.688 103.18 22.176 104.067 21.633C99.877 16.755 94.781 12.747 88.395 12.047Z" fill="#A93E16"/>
<path d="M34.38 82.02C32.288 81.826 32.182 84.526 32.276 85.951C32.28 86.031 32.408 86.02 32.408 85.933C32.428 85.131 32.585 84.415 32.902 83.677C33.461 82.374 34.627 82.756 35.54 83.446C36.051 83.832 36.467 84.308 36.866 84.82C35.428 85.671 34.97 87.902 34.671 89.42C34.652 89.518 34.815 89.573 34.846 89.474C35.348 87.861 35.91 86.474 37.312 85.45C37.321 85.448 37.323 85.439 37.329 85.435C37.782 86.095 38.192 86.789 38.611 87.442C38.672 87.544 38.835 87.477 38.823 87.367C38.627 85.186 36.726 82.241 34.38 82.02Z" fill="#C39368"/>
<path d="M106.788 71.416C106.314 69.85 104.187 69.369 102.801 69.781C102.329 69.923 101.876 70.12 101.438 70.35C101.019 69.898 100.465 69.53 100.023 69.105C99.305 68.414 98.823 67.707 98.855 66.661C98.863 66.526 98.628 66.515 98.616 66.652C98.484 68.054 99.139 70.137 100.465 70.939C99.318 71.763 98.362 72.867 97.712 74.092C97.688 74.138 97.753 74.167 97.784 74.138C98.97 72.982 100.17 71.843 101.668 71.094C103.33 70.272 106.054 70.387 105.864 72.789C105.592 76.099 102.563 77.485 100.201 79.097C99.947 79.268 100.162 79.633 100.438 79.551C103.728 78.595 107.982 75.391 106.788 71.416Z" fill="#C39368"/>
<path d="M98.502 37.258C94.546 38.136 94.845 44.075 95.236 47.069C95.262 47.275 95.578 47.306 95.611 47.085C95.953 44.635 96.303 41.77 97.857 39.758C99.96 37.029 102.059 42.911 102.864 44.045C103.087 44.366 103.648 44.354 103.799 43.966C104.876 41.202 101.665 36.558 98.502 37.258Z" fill="#A93E16"/>
<path d="M75.706 43.787C70.52 44.944 69.293 53.641 69.313 57.699C69.321 58.78 70.99 58.815 71.162 57.785C71.847 53.702 71.804 49.244 75.169 46.22C79.24 42.569 82.487 50.889 83.755 53.397C83.857 53.592 84.19 53.565 84.164 53.304C83.746 49.05 80.962 42.617 75.706 43.787Z" fill="#A93E16"/>
<path d="M104.337 83.411C95.278 92.231 78.718 90.401 71.26 80.477C71.181 80.375 71.062 80.417 71.018 80.506C70.974 80.513 70.934 80.534 70.91 80.588C68.843 85.451 67.039 91.158 67.966 96.472C68.536 99.736 70.851 103.544 74.188 104.568C83.914 107.535 90.231 96.806 94.327 89.785C98.425 88.959 102.135 86.961 104.604 83.631C104.736 83.451 104.497 83.259 104.337 83.411ZM75.604 104.015C71.142 103.454 68.976 98.449 68.574 94.543C68.087 89.823 70.469 85.438 71.171 80.888C75.293 87.792 84.942 91.235 93.296 89.967C88.952 96.344 84.719 105.153 75.604 104.015Z" fill="#C39368"/>
<path d="M102.573 58.576C102.924 61.324 103.88 63.369 104.71 63.14C105.533 62.91 105.918 60.494 105.565 57.745C105.215 54.997 104.255 52.957 103.429 53.187C102.602 53.419 102.214 55.831 102.573 58.576Z" fill="#3D1A0B"/>
<path d="M104.015 56.02C104.17 56.833 104.497 57.418 104.741 57.323C104.984 57.217 105.06 56.474 104.908 55.657C104.753 54.846 104.434 54.263 104.182 54.361C103.935 54.46 103.86 55.204 104.015 56.02Z" fill="white"/>
<path d="M78.745 65.409C79.268 68.571 80.6381 70.911 81.8061 70.634C82.9731 70.357 83.5 67.573 82.973 64.408C82.451 61.253 81.077 58.913 79.914 59.192C78.744 59.467 78.221 62.252 78.745 65.409Z" fill="#3D1A0B"/>
<path d="M80.766 62.442C80.99 63.38 81.455 64.045 81.802 63.929C82.146 63.814 82.245 62.952 82.026 62.012C81.8 61.081 81.337 60.41 80.99 60.53C80.644 60.65 80.539 61.508 80.766 62.442Z" fill="white"/>
<path d="M80.738 74.802C80.356 76.501 76.728 77.137 72.636 76.215C68.545 75.298 65.534 73.175 65.916 71.469C66.303 69.77 69.927 69.134 74.019 70.056C78.114 70.975 81.118 73.096 80.738 74.802Z" fill="#F9CBC0"/>
<path d="M110.513 64.492C110.891 65.64 109.58 67.111 107.581 67.769C105.581 68.431 103.653 68.035 103.27 66.889C102.892 65.739 104.202 64.272 106.202 63.608C108.203 62.945 110.13 63.343 110.513 64.492Z" fill="#F9CBC0"/>
</svg>
