<svg width="120" height="110" viewBox="0 0 120 110" fill="none" xmlns="http://www.w3.org/2000/svg">
<path d="M26.373 18.538C26.373 18.538 15.646 26.813 15.249 37.865C14.85 48.914 10.287 56.601 8.39099 59.453C6.49299 62.303 -0.214976 80.145 15.327 95.924C34.623 115.515 72.573 109.101 77.382 108.082C82.189 107.062 105.357 101.381 109.878 88.309C114.399 75.239 107.876 37.362 93.302 26.625C78.727 15.882 51.734 0.520027 26.373 18.538Z" fill="#F4D9BF"/>
<path d="M108.775 33.22L115.515 29.9L107.913 30.139L107.757 21.162L105.374 27.853C105.374 27.853 100.939 8.72902 68.118 2.17402C35.298 -4.38498 6.22598 15.779 0.789978 23.18C0.789978 23.18 8.49698 18.791 14.321 17.634C14.321 17.634 4.75501 25.248 0.88501 34.307C0.88501 34.307 11.198 26.353 16.78 25.305C16.78 25.305 10.326 31.451 9.42102 37.621C9.42102 37.621 18.121 27.386 25.814 23.924C25.814 23.924 23.75 27.853 23.38 30.681C23.38 30.681 38.815 22.334 51.685 20.841C51.685 20.841 43.621 26.705 40.263 32.11C40.263 32.11 65.884 35.889 79.806 34.342C79.806 34.342 76.82 38.922 76.333 42.426C76.333 42.426 84.528 38.51 86.653 36.906C86.653 36.906 86.257 45.98 88.108 54.744L94.21 45.493C94.21 45.493 94.411 69.947 87.132 86.748C87.132 86.748 93.085 77.008 101.111 80.814C109.136 84.62 97.492 104.615 87.365 96.857C87.365 96.857 80.402 104.844 75.39 108.19C75.39 108.19 103.083 110.468 114.648 86.223C126.215 61.978 113.211 36.139 108.775 33.22Z" fill="#B25105"/>
<path d="M25.481 34.83C25.481 34.83 29.801 32.014 32.87 36.157C32.87 36.157 34.853 31.646 29.962 31.117C25.07 30.586 25.481 34.83 25.481 34.83Z" fill="#7E440C"/>
<path d="M26.699 49.109C25.894 51.805 24.285 53.701 23.105 53.352C21.925 52.995 21.621 50.527 22.427 47.832C23.234 45.139 24.842 43.24 26.023 43.595C27.203 43.946 27.504 46.416 26.699 49.109Z" fill="#3C190A"/>
<path d="M24.867 46.337C24.557 47.13 24.023 47.664 23.676 47.528C23.327 47.392 23.299 46.641 23.61 45.845C23.921 45.051 24.453 44.518 24.799 44.654C25.15 44.792 25.178 45.543 24.867 46.337Z" fill="white"/>
<path d="M22.246 82.573C22.246 82.573 22.255 82.779 22.297 83.159C22.341 83.543 22.434 84.102 22.584 84.798C22.75 85.494 22.977 86.334 23.354 87.25C23.547 87.707 23.739 88.197 24.019 88.678C24.149 88.921 24.28 89.174 24.417 89.43C24.576 89.671 24.74 89.918 24.907 90.17C25.562 91.191 26.472 92.144 27.507 93.05C28.053 93.469 28.639 93.871 29.24 94.267C29.894 94.579 30.518 94.98 31.214 95.263C31.927 95.508 32.625 95.831 33.376 96.022C34.135 96.189 34.894 96.395 35.675 96.534C36.466 96.623 37.262 96.714 38.061 96.802C38.827 96.858 39.687 96.834 40.497 96.851C41.327 96.907 42.11 96.785 42.913 96.745C43.311 96.708 43.711 96.706 44.107 96.643L45.29 96.446C45.682 96.383 46.075 96.317 46.466 96.254C46.849 96.156 47.228 96.058 47.607 95.962C48.367 95.776 49.114 95.581 49.825 95.307C50.543 95.062 51.25 94.821 51.918 94.516C52.592 94.232 53.262 93.969 53.875 93.632C55.13 93.02 56.27 92.342 57.289 91.667C59.325 90.312 60.904 88.998 61.939 88.008C62.979 87.022 63.51 86.39 63.51 86.39C63.51 86.39 63.043 87.071 62.064 88.13C61.078 89.179 59.603 90.644 57.582 92.089C56.572 92.813 55.439 93.549 54.182 94.224C53.569 94.59 52.897 94.883 52.217 95.203C51.547 95.546 50.819 95.788 50.084 96.057C49.359 96.347 48.594 96.556 47.816 96.757C47.427 96.86 47.038 96.964 46.645 97.07C46.244 97.139 45.841 97.214 45.439 97.286L44.221 97.502C43.815 97.571 43.394 97.584 42.979 97.626C42.149 97.679 41.297 97.814 40.483 97.767C39.652 97.735 38.864 97.753 37.999 97.681C37.175 97.579 36.351 97.475 35.536 97.375C34.727 97.222 33.937 96.997 33.151 96.811C32.371 96.602 31.639 96.254 30.9 95.992C30.177 95.681 29.514 95.262 28.848 94.901C28.231 94.463 27.633 94.015 27.078 93.555C26.026 92.564 25.119 91.534 24.48 90.451C24.316 90.184 24.158 89.922 24.001 89.664C23.874 89.395 23.748 89.131 23.626 88.871C23.37 88.362 23.204 87.848 23.036 87.37C22.712 86.411 22.536 85.546 22.411 84.833C22.3 84.118 22.265 83.552 22.247 83.167C22.238 82.779 22.246 82.573 22.246 82.573Z" fill="#C39368"/>
<path d="M60.412 83.631C60.412 83.631 60.482 83.74 60.627 83.901C60.748 84.07 60.977 84.272 61.208 84.525C61.342 84.636 61.486 84.755 61.639 84.88C61.777 85.017 61.953 85.126 62.135 85.235C62.313 85.351 62.496 85.462 62.677 85.587C62.879 85.676 63.085 85.768 63.291 85.858C63.496 85.949 63.682 86.088 63.908 86.128C64.126 86.181 64.334 86.265 64.541 86.327C64.748 86.385 64.941 86.48 65.136 86.533C65.334 86.565 65.522 86.607 65.696 86.647C66.391 86.805 66.878 86.993 66.878 86.993C66.878 86.993 66.397 87.113 65.644 87.172C65.456 87.186 65.249 87.201 65.033 87.206C64.818 87.195 64.591 87.153 64.355 87.109C64.123 87.06 63.874 87.025 63.63 86.963C63.38 86.928 63.153 86.784 62.913 86.687C62.682 86.574 62.449 86.455 62.223 86.341C62.011 86.193 61.826 86.014 61.638 85.863C61.442 85.714 61.281 85.543 61.154 85.352C61.019 85.176 60.894 85.006 60.795 84.839C60.626 84.488 60.498 84.2 60.463 83.972C60.406 83.757 60.412 83.631 60.412 83.631Z" fill="#C39368"/>
<path d="M33.754 68.171C33.754 68.171 33.594 67.92 33.295 67.505C33.002 67.087 32.54 66.51 31.902 65.958C31.588 65.689 31.205 65.436 30.797 65.328C30.385 65.217 29.973 65.284 29.586 65.53C29.496 65.594 29.406 65.68 29.315 65.757C29.282 65.78 29.196 65.861 29.205 65.842L29.073 66.008L28.804 66.341L28.632 66.659C28.391 67.077 28.245 67.627 28.164 68.15C28.099 68.686 28.074 69.239 28.152 69.778C28.178 70.047 28.223 70.313 28.291 70.568C28.337 70.836 28.424 71.082 28.512 71.328C28.685 71.812 28.905 72.269 29.166 72.666C29.281 72.878 29.437 73.049 29.58 73.223C29.713 73.41 29.863 73.565 30.021 73.7C30.316 74.006 30.651 74.199 30.932 74.407C31.24 74.561 31.515 74.703 31.75 74.793C32.233 74.937 32.522 75.031 32.522 75.031C32.522 75.031 32.231 75.018 31.704 74.964C31.448 74.916 31.14 74.822 30.784 74.711C30.453 74.554 30.048 74.403 29.689 74.106C29.493 73.976 29.304 73.826 29.133 73.643C28.95 73.469 28.764 73.286 28.611 73.065C28.277 72.65 27.979 72.165 27.761 71.622C27.646 71.355 27.534 71.079 27.464 70.784C27.372 70.499 27.31 70.2 27.276 69.892C27.177 69.287 27.1909 68.651 27.2589 68.025C27.3699 67.394 27.531 66.789 27.874 66.206C27.96 66.063 28.048 65.911 28.139 65.779L28.423 65.459L28.565 65.302C28.681 65.196 28.707 65.188 28.783 65.125C28.912 65.029 29.034 64.93 29.168 64.845C29.731 64.503 30.462 64.466 31.004 64.685C31.56 64.884 31.953 65.246 32.262 65.585C32.89 66.269 33.213 66.953 33.446 67.415C33.668 67.888 33.754 68.171 33.754 68.171Z" fill="#C39368"/>
<path d="M61.171 43.903C61.171 43.903 65.466 38.05 71.121 40.754C76.777 43.459 75.353 49.462 75.353 49.462C75.353 49.462 72.402 39.43 61.171 43.903Z" fill="#7E440C"/>
<path d="M65.565 58.411C64.762 61.105 63.1511 63.001 61.9731 62.65C60.7911 62.295 60.487 59.827 61.295 57.132C62.1 54.439 63.709 52.542 64.89 52.893C66.066 53.246 66.371 55.716 65.565 58.411Z" fill="#3C190A"/>
<path d="M63.732 55.637C63.423 56.431 62.89 56.964 62.543 56.829C62.193 56.691 62.166 55.937 62.476 55.145C62.786 54.351 63.319 53.818 63.665 53.954C64.016 54.092 64.043 54.843 63.732 55.637Z" fill="white"/>
<path d="M95.891 91.699C95.889 91.696 95.838 91.762 95.702 91.826C95.634 91.861 95.546 91.896 95.442 91.91C95.342 91.922 95.21 91.97 95.085 91.939C94.956 91.925 94.808 91.905 94.655 91.868C94.518 91.807 94.376 91.736 94.231 91.649C93.915 91.496 93.745 91.2 93.5 90.954C93.398 90.817 93.348 90.661 93.271 90.522C93.195 90.38 93.144 90.227 93.085 90.087C92.956 89.809 92.96 89.522 92.929 89.287C92.884 88.807 92.939 88.486 92.939 88.486C92.939 88.486 93.183 88.734 93.423 89.113C93.56 89.294 93.648 89.54 93.812 89.746C93.884 89.858 93.972 89.965 94.035 90.085C94.107 90.196 94.162 90.331 94.248 90.429L94.486 90.735C94.562 90.838 94.627 90.954 94.718 91.016C94.808 91.085 94.88 91.18 94.96 91.262C95.05 91.313 95.132 91.373 95.216 91.433C95.296 91.505 95.384 91.517 95.46 91.562C95.542 91.601 95.612 91.631 95.673 91.647C95.803 91.689 95.891 91.699 95.891 91.699Z" fill="#C39368"/>
<path d="M99.428 87.056C99.428 87.056 98.737 86.954 97.754 87.037C97.266 87.096 96.703 87.167 96.127 87.353C95.832 87.414 95.555 87.564 95.256 87.655C94.969 87.79 94.676 87.915 94.397 88.075C94.126 88.244 93.827 88.372 93.577 88.572C93.329 88.768 93.04 88.908 92.815 89.119C92.577 89.314 92.344 89.503 92.125 89.679C91.922 89.878 91.721 90.06 91.533 90.226C91.148 90.554 90.883 90.883 90.654 91.083C90.431 91.287 90.304 91.403 90.304 91.403C90.304 91.403 90.372 91.248 90.507 90.978C90.653 90.716 90.818 90.3 91.134 89.888C91.284 89.674 91.45 89.442 91.636 89.205C91.833 88.977 92.052 88.746 92.288 88.512C92.513 88.27 92.794 88.069 93.069 87.85C93.337 87.628 93.663 87.465 93.962 87.273C94.278 87.106 94.614 86.971 94.941 86.837C95.279 86.73 95.609 86.62 95.945 86.571C96.273 86.5 96.599 86.481 96.908 86.471C97.213 86.459 97.504 86.486 97.767 86.516C98.834 86.654 99.428 87.056 99.428 87.056Z" fill="#C39368"/>
<g opacity="0.4">
<path d="M0.89801 34.299C1.11301 34.132 11.259 26.342 16.781 25.306C16.781 25.306 16.658 25.426 16.453 25.635C20.875 22.151 26.326 19.147 26.326 19.147C12.091 22.93 2.93801 32.094 0.89801 34.299Z" fill="#B25105"/>
<path d="M33.363 17.669C19.589 22.711 11.937 33.791 9.92499 37.046C11.865 34.86 19.138 26.981 25.71 23.974C29.045 19.782 33.363 17.669 33.363 17.669Z" fill="#B25105"/>
<path d="M23.387 30.679C23.51 30.612 38.785 22.374 51.582 20.853C56.509 18.074 59.236 17.426 59.236 17.426C42.209 17.577 25.938 28.834 23.387 30.679Z" fill="#B25105"/>
<path d="M107.914 30.139L107.758 21.162L106.387 31.447L107.914 30.139Z" fill="#B25105"/>
<path d="M0.869019 23.082C0.844019 23.113 0.814016 23.147 0.791016 23.181C0.791016 23.181 8.402 18.851 14.216 17.658C19.611 14.661 24.836 13.464 24.836 13.464C13.263 13.265 3.22902 21.092 0.869019 23.082Z" fill="#B25105"/>
<path d="M105.021 32.83C105.021 32.83 112.084 37.332 114.521 57.88C116.96 78.429 104.589 89.39 104.589 89.39C109.337 74.622 93.04 76.746 93.04 76.746C99.768 57.82 94.401 38.516 94.401 38.516C92.378 46.924 88.108 54.745 88.108 54.745L94.21 45.494C94.21 45.494 94.411 69.948 87.132 86.749C87.132 86.749 93.085 77.009 101.111 80.815C109.136 84.621 97.492 104.616 87.365 96.858C87.365 96.858 80.402 104.845 75.39 108.191C75.39 108.191 103.083 110.469 114.648 86.224C126.214 61.977 113.21 36.138 108.775 33.219L115.515 29.899L105.021 32.83Z" fill="#B25105"/>
<path d="M40.391 31.923C40.35 31.987 40.303 32.051 40.264 32.111C40.264 32.111 65.885 35.89 79.807 34.343C79.807 34.343 79.791 34.363 79.77 34.399C83.272 31.093 87.086 26.131 87.086 26.131C71.635 33.965 44.703 32.257 40.391 31.923Z" fill="#B25105"/>
<path d="M76.334 42.427C76.334 42.427 84.529 38.511 86.654 36.907C86.654 36.907 86.654 36.955 86.65 37.041C87.881 34.299 88.648 31.561 88.648 31.561C85.486 36.923 76.334 42.427 76.334 42.427Z" fill="#B25105"/>
</g>
<path d="M77.143 70.442C77.274 72.479 73.42 74.384 68.526 74.7C63.635 75.018 59.563 73.628 59.43 71.595C59.299 69.559 63.157 67.654 68.047 67.335C72.938 67.018 77.01 68.407 77.143 70.442Z" fill="#FADAEA"/>
<path d="M26.302 62.528C25.737 64.275 21.874 64.591 17.672 63.23C13.471 61.871 10.522 59.353 11.086 57.605C11.653 55.859 15.516 55.545 19.719 56.903C23.92 58.263 26.867 60.78 26.302 62.528Z" fill="#FADAEA"/>
</svg>
