<svg width="116" height="112" viewBox="0 0 116 112" fill="none" xmlns="http://www.w3.org/2000/svg">
<path d="M82.037 28.145C95.145 29.633 104.083 33.209 107.06 43.934C110.039 54.657 106.166 55.852 110.934 65.381C115.702 74.914 117.908 105.936 73.995 111.258C54.334 113.641 40.928 105.895 37.353 99.342C37.353 99.342 33.408 105.262 26.48 98.893C19.556 92.526 10.17 68.397 29.274 47.061C48.375 25.723 82.037 28.145 82.037 28.145Z" fill="#F4D9BF"/>
<path d="M69.377 83.479C69.377 83.479 72.131 86.977 82.782 88.469C93.431 89.957 97.603 87.797 97.603 87.797C97.603 87.797 94.623 107.311 76.899 105.076C76.899 105.076 63.867 102.467 69.377 83.479Z" fill="#930323"/>
<path d="M84.156 94.653C86.992 93.612 88.897 91.487 90.275 88.983C88.253 89.012 85.782 88.887 82.783 88.469C72.132 86.977 69.378 83.479 69.378 83.479C68.602 86.151 68.205 88.489 68.076 90.551C72.528 93.774 78.921 96.569 84.156 94.653Z" fill="white"/>
<path d="M76.911 100.356C75.09 98.133 71.559 94.594 68.197 94.553C69.414 103.565 76.9 105.076 76.9 105.076C77.711 105.178 78.48 105.22 79.231 105.234C78.873 103.538 78.178 101.901 76.911 100.356Z" fill="#F9CBC0"/>
<path d="M14.714 41.253C14.714 41.253 8.90299 23.827 34.671 14.144C60.44 4.46198 74.888 4.163 84.718 1.781C94.549 -0.599996 105.274 -1.19603 98.122 5.20697C98.122 5.20697 107.506 0.443021 110.038 2.97302C112.571 5.50402 104.38 13.698 104.38 13.698C104.38 13.698 114.211 9.82502 115.7 12.507C117.187 15.189 106.464 24.573 99.762 26.208C99.762 26.208 105.57 27.106 105.57 29.487C105.57 31.872 82.931 33.659 75.485 33.508C75.485 33.508 80.696 34.25 80.548 36.488C80.399 38.718 59.399 43.488 49.715 40.062C49.715 40.062 52.991 41.997 53.142 43.935C53.29 45.871 46.439 42.449 46.439 42.449C46.439 42.449 47.334 55.105 44.8 57.488C42.269 59.871 40.629 53.172 40.629 53.172C40.629 53.172 42.567 69.254 40.034 71.34C37.503 73.426 36.459 67.471 36.459 67.471C36.459 67.471 41.672 84.897 40.332 88.916C38.992 92.939 36.757 86.086 35.864 84.297L36.013 86.979C36.013 86.979 32.586 81.321 27.523 86.979C22.457 92.643 29.606 104.557 37.352 99.344C37.352 99.344 41.226 104.707 46.737 107.088C46.737 107.088 31.247 115.43 21.117 98.301C21.117 98.301 21.715 101.055 20.821 102.026C19.927 102.993 13.821 99.567 13.224 85.419C13.224 85.419 12.479 89.661 11.363 89.888C10.246 90.109 2.64999 76.779 6.14899 64.413C6.14899 64.413 2.351 68.811 1.086 68.513C-0.182003 68.214 1.978 51.456 12.182 46.245C12.182 46.245 8.831 45.425 6.97 45.573C5.108 45.721 9.204 41.778 13.151 43.71C13.151 43.71 9.725 40.36 10.099 37.53C10.468 34.696 14.714 41.253 14.714 41.253Z" fill="#7F420A"/>
<path opacity="0.5" d="M85.248 11.286C88.792 9.69599 92.312 8.06701 95.773 6.32701C96.562 5.93201 97.362 5.54599 98.165 5.16899C102.849 0.947989 99.717 -0.20802 94.212 0.18498C97.486 3.08098 91.393 7.71099 85.248 11.286Z" fill="#59420A"/>
<path opacity="0.5" d="M115.701 12.504C114.212 9.822 104.381 13.695 104.381 13.695C104.381 13.695 112.572 5.50195 110.039 2.96995C108.055 0.987945 101.861 3.48599 99.276 4.65799C100.284 4.21499 101.302 3.79895 102.34 3.44895C103.979 2.90195 106.316 2.02495 107.968 2.98795C109.407 3.82395 108.592 5.945 107.831 6.918C106.056 9.189 103.509 10.736 101.141 12.309C98.221 14.252 95.249 15.9459 92.046 17.3109C95.703 16.5919 99.355 16.079 103.156 15.729C104.598 15.6 106.419 15.209 107.587 16.284C108.088 16.743 107.864 17.554 107.458 17.977C105.342 20.198 101.185 21.368 98.37 22.274C95.246 23.282 92.046 24.01 88.804 24.438C90.864 25.106 92.189 25.973 91.113 27.018C87.711 30.331 80.802 29.321 76.562 29.334C72.725 29.352 68.826 29.432 65 29.006C66.415 29.694 67.673 30.5659 68.447 31.7329C70.855 35.3599 65.398 36.1979 62.97 36.3969C59.39 36.6899 55.774 37.098 52.177 36.84C49.972 36.686 48.144 35.91 46.29 35.012C48.013 37.086 49.423 39.4809 50.547 41.7719C50.754 42.1919 50.346 42.565 49.936 42.383C47.808 41.428 46.048 40.076 44.473 38.453C45.23 42.41 45.607 47.574 42.888 46.855C41.34 46.449 40.85 43.277 40.597 41.484C40.571 43.007 40.508 44.529 40.361 46.043C40.107 48.627 39.917 52.746 37.429 54.297C37.295 54.381 37.113 54.375 36.979 54.297C34.951 53.098 34.304 50.703 34.056 48.236C33.935 49.293 33.802 50.349 33.612 51.396C33.213 53.591 32.773 57.087 30.878 58.609C29.157 59.984 27.118 58.701 26.373 56.865C25.205 53.99 25.61 50.838 25.807 47.787C24.727 49.512 23.476 51.166 22.153 52.685C20.902 54.12 18.724 56.833 16.528 56.714C14.386 56.595 13.727 54.134 14.274 52.353C14.94 50.187 16.272 48.316 17.747 46.589C16.459 47.347 15.081 47.907 14.101 46.778C13.001 45.522 15.069 44.2119 16.523 43.5089C14.025 42.3019 9.38802 38.9 10.42 36.868C10.258 36.954 10.146 37.161 10.098 37.526C9.724 40.356 13.15 43.706 13.15 43.706C9.204 41.774 5.107 45.7179 6.969 45.5689C8.83 45.4209 12.181 46.241 12.181 46.241C1.97801 51.452 -0.181999 68.2099 1.085 68.5089C2.351 68.808 6.14802 64.409 6.14802 64.409C2.64902 76.774 10.245 90.104 11.362 89.8839C12.478 89.657 13.223 85.415 13.223 85.415C13.82 99.563 19.926 102.989 20.82 102.022C21.714 101.051 21.116 98.297 21.116 98.297C31.246 115.426 46.736 107.084 46.736 107.084C41.225 104.703 37.351 99.34 37.351 99.34C29.605 104.553 22.456 92.639 27.522 86.975C32.585 81.317 36.012 86.975 36.012 86.975L35.863 84.293C36.756 86.082 38.991 92.936 40.331 88.912C41.37 85.797 38.476 74.639 37.118 69.767C37.682 71.171 38.627 72.494 40.033 71.335C42.565 69.249 40.628 53.167 40.628 53.167C40.628 53.167 42.268 59.8659 44.799 57.4829C47.332 55.0999 46.438 42.4439 46.438 42.4439C46.438 42.4439 53.29 45.866 53.141 43.93C52.991 41.992 49.714 40.057 49.714 40.057C59.398 43.483 80.398 38.7129 80.547 36.4829C80.695 34.2449 75.484 33.503 75.484 33.503C82.93 33.653 105.569 31.866 105.569 29.482C105.569 27.101 99.761 26.203 99.761 26.203C106.464 24.571 117.188 15.186 115.701 12.504Z" fill="#59420A"/>
<path d="M33.157 89.678C30.244 88.905 29.094 92.012 30.199 94.229C30.238 94.309 30.375 94.299 30.361 94.194C30.244 93.274 30.117 92.298 30.498 91.417C31.061 90.116 32.809 90.517 33.774 90.993C34.008 91.108 34.224 91.249 34.424 91.407C34.081 91.544 33.763 91.796 33.583 92.048C33.053 92.798 33.08 93.657 32.968 94.521C32.95 94.654 33.139 94.685 33.173 94.556C33.337 93.943 33.581 93.31 33.854 92.734C33.98 92.463 34.159 92.224 34.415 92.066C34.607 91.939 34.819 91.982 35.03 92.003C35.97 93.105 36.481 94.665 36.852 95.966C36.921 96.212 37.31 96.173 37.343 95.923C37.705 93.256 35.745 90.37 33.157 89.678Z" fill="#C39368"/>
<path d="M102.421 69.239C101.569 67.716 99.288 67.766 97.892 68.264C97.452 68.418 97.028 68.631 96.624 68.891C96.586 68.873 96.556 68.848 96.512 68.836C95.449 68.52 94.69 67.838 93.951 67.037C93.835 66.912 93.611 67.078 93.68 67.228C94.116 68.177 94.618 69.24 95.548 69.722C94.725 70.46 94.02 71.357 93.488 72.245C93.403 72.388 93.628 72.524 93.727 72.397C94.971 70.807 99.539 67.477 101.326 70.002C101.896 70.811 101.214 72.158 100.759 72.85C100.046 73.94 99.114 74.664 97.978 75.274C97.788 75.378 97.937 75.622 98.102 75.626C101.079 75.723 103.971 72.008 102.421 69.239Z" fill="#C39368"/>
<path d="M104.599 80.483C104.508 80.167 104.073 80.307 104.072 80.596C104.03 84.479 99.678 86.364 96.495 87.35C93.114 88.405 89.43 88.364 85.935 88.135C80.068 87.752 74.834 86.967 70.027 83.52C70.52 83.317 71.027 83.143 71.392 82.791C71.456 82.731 71.425 82.633 71.372 82.584C70.682 81.871 69.436 82.59 68.798 83.022C67.795 83.698 67.104 84.712 66.724 85.844C66.652 86.061 66.939 86.293 67.087 86.074C67.534 85.404 68.123 84.828 68.747 84.31C65.275 92.222 67.784 103.191 76.894 105.603C87.329 108.365 96.748 97.742 98.088 88.332C102.264 87.047 105.787 84.647 104.599 80.483ZM77.7 104.542C67.788 103.013 67.592 91.487 69.534 83.907C73.902 88.85 82.796 89.362 88.844 89.595C90.681 89.667 93.797 89.439 96.792 88.693C94.886 97.461 87.508 106.051 77.7 104.542Z" fill="#C39368"/>
<path d="M97.646 41.624C95.078 42.923 95.631 46.241 95.982 48.554C96.013 48.763 96.341 48.732 96.35 48.529C96.398 46.982 96.622 45.201 97.366 43.814C98.661 41.4 101.166 44.337 102.142 45.42C102.311 45.611 102.657 45.5 102.665 45.238C102.706 43.006 99.952 40.456 97.646 41.624Z" fill="#7F420A"/>
<path d="M69.913 48.436C66.812 49.776 66.314 54.633 68.129 56.821C68.423 57.176 68.956 56.848 68.997 56.487C69.244 54.323 68.633 52.18 70.343 50.372C72.299 48.308 75.506 51.304 76.898 52.511C77.044 52.64 77.297 52.478 77.191 52.304C75.711 49.913 73.195 47.018 69.913 48.436Z" fill="#7F420A"/>
<path d="M103.383 55.979C103.949 58.344 103.737 60.424 102.91 60.635C102.081 60.836 100.947 59.09 100.383 56.717C99.817 54.352 100.032 52.268 100.858 52.063C101.686 51.856 102.818 53.612 103.383 55.979Z" fill="#3D1A0B"/>
<path d="M101.237 54.61C101.363 55.333 101.255 55.952 101 55.989C100.742 56.022 100.435 55.464 100.308 54.735C100.187 54.014 100.291 53.391 100.55 53.358C100.804 53.319 101.115 53.883 101.237 54.61Z" fill="white"/>
<path d="M76.938 62.354C77.424 65.11 76.986 67.512 75.963 67.729C74.937 67.94 73.71 65.885 73.231 63.124C72.743 60.368 73.186 57.962 74.209 57.751C75.233 57.538 76.457 59.6 76.938 62.354Z" fill="#3D1A0B"/>
<path d="M74.451 60.708C74.538 61.552 74.353 62.257 74.042 62.298C73.727 62.329 73.397 61.673 73.31 60.827C73.222 59.985 73.406 59.274 73.72 59.243C74.035 59.202 74.364 59.862 74.451 60.708Z" fill="white"/>
<path d="M76.178 71.903C76.369 73.469 73.319 75.088 69.358 75.518C65.396 75.95 62.03 75.026 61.833 73.457C61.639 71.889 64.692 70.269 68.651 69.84C72.611 69.413 75.979 70.334 76.178 71.903Z" fill="#F9CBC0"/>
<path d="M108.532 61.129C109.061 62.176 107.619 63.942 105.305 65.07C102.994 66.203 100.688 66.265 100.153 65.218C99.621 64.169 101.065 62.403 103.38 61.277C105.691 60.147 107.997 60.081 108.532 61.129Z" fill="#F9CBC0"/>
</svg>
