<svg width="132" height="117" viewBox="0 0 132 117" fill="none" xmlns="http://www.w3.org/2000/svg">
<path d="M126.13 49.121C129.089 48.346 131.407 45.691 131.517 42.609C131.665 38.48 127.24 33.285 122.736 32.425C123.773 31.743 124.677 30.915 125.345 29.933C127.594 26.624 126.276 22.425 122.98 20.29C120.235 18.513 116.676 18.108 113.66 19.269C114.969 15.654 114.109 11.124 111.347 8.556C107.712 5.177 101.735 3.761 97.635 7.019C97.275 7.304 96.955 7.652 96.653 8.025C95.869 6.312 94.239 4.789 92.729 3.916C88.841 1.67 84.282 2.713 81.231 5.725C80.94 6.012 80.674 6.327 80.415 6.647C79.032 3.655 75.186 1.53 72.165 0.662998C66.423 -0.987002 60.175 1.386 56.186 5.591C54.467 7.402 53.782 9.605 53.75 11.999C53.398 11.54 53.004 11.1 52.556 10.69C49.555 7.946 45.194 8.782 41.946 10.629C38.419 12.637 37.598 16.858 37.887 20.576C34.635 17.976 30.143 17.17 26.266 18.969C21.828 21.028 20.532 26.047 21.15 30.457C21.15 30.459 21.151 30.463 21.151 30.465C20.877 30.285 20.602 30.119 20.33 29.983C16.146 27.891 11.284 31.044 8.84501 34.294C6.19901 37.821 5.83301 43.054 8.98801 46.337C9.12101 46.478 9.26701 46.599 9.41601 46.722C8.27901 46.904 7.19701 47.298 6.05401 47.939C1.98301 50.214 0.341011 54.91 0.559011 59.349C0.706011 62.32 1.67201 65.62 4.10801 67.267C3.81501 67.419 3.53001 67.611 3.25401 67.874C1.89301 69.171 1.08201 70.806 0.619011 72.618C-0.401989 76.62 0.587012 80.565 3.29101 83.643C4.83601 85.399 7.44101 86.561 9.92201 86.553C8.19301 89.711 9.01801 94.334 12.789 95.61C13.584 95.878 14.313 95.985 14.975 95.964C14.692 97.198 14.674 98.552 14.837 99.554C15.631 104.4 19.696 107.644 24.438 108.154C27.918 108.529 30.809 106.463 32.194 103.504C32.657 104.342 33.252 105.096 34.034 105.674C35.472 106.742 39.919 109.213 41.585 107.414C41.751 107.232 41.866 106.953 41.777 106.705C41.21 105.119 39.78 103.805 38.837 102.43C37.433 100.385 36.659 97.869 36.134 95.475C35.693 93.477 35.898 91.327 35.584 89.293C35.205 86.828 34.308 84.381 33.418 82.057C31.55 77.18 29.493 72.53 28.922 67.262C28.609 64.377 29.401 61.727 30.252 59.018C30.487 58.271 30.837 57.547 31.22 56.84C31.589 56.945 31.974 57.029 32.38 57.08C36.171 57.57 38.835 55.947 41.116 52.996C42.62 51.053 43.125 48.631 42.829 46.322C46.563 48.025 51.386 47.949 54.311 45.514C56.743 43.489 57.957 40.783 58.04 38.088C59.74 39.814 62.336 40.611 65.08 39.609C66.59 39.056 68.308 37.836 69.037 36.254C69.584 37.049 70.266 37.777 71.124 38.399C74.01 40.485 78.535 40.814 81.754 39.446C84.629 38.221 87.179 36.569 88.67 33.901C89.723 37.206 93.069 40.096 96.447 41.187C99.562 42.194 102.39 41.387 104.53 39.604C103.961 41.381 103.842 43.502 105.08 44.848C105.973 45.819 106.904 46.331 107.835 46.498C107.805 47.359 107.858 48.256 107.963 49.254C108.309 52.518 109.063 55.865 109.755 59.07C110.412 62.113 111.445 65.125 112.954 67.851C113.66 69.126 114.64 70.308 115.43 71.539C116.215 72.768 116.198 74.244 116.959 75.396C117.676 76.482 120.602 75.13 121.379 74.796C123.789 73.761 125.272 72.02 126.045 69.515C126.637 67.595 126.418 65.904 125.699 64.454C127.986 63.745 129.75 62.222 130.424 59.72C131.427 55.975 129.455 51.207 126.13 49.121Z" fill="#EC7B23"/>
<path opacity="0.4" d="M116.956 75.395C117.503 76.221 119.326 75.635 120.511 75.161C121.154 73.935 121.529 72.548 121.551 71.085C121.627 66.163 118.569 63.487 115.16 60.483C111.598 57.34 108.786 52.2 110.081 47.338C110.376 46.227 111.209 45.215 111.238 44.037C111.27 42.726 110.249 42.24 109.688 41.186C109.027 39.945 109.556 38.636 108.056 37.876C105.928 36.798 101.786 38.603 100.6 38.761C93.983 39.644 91.61 30.093 89.307 29.683C87.004 29.275 83.43 42.144 74.95 41.013C70.798 40.46 72.239 33.378 70.262 32.561C68.288 31.744 68.638 38.412 64.098 39.021C61.68 39.345 58.672 34.408 56.902 35.035C55.131 35.662 55.573 45.664 52.473 47.326C48.719 49.336 41.138 41.818 39.778 43.412C38.421 45.006 45.202 51.922 38.412 57.068C33.153 61.054 29.001 53.525 27.561 55.185C27.04 55.787 27.934 60.126 26.628 63.003C25.666 65.126 24.84 67.542 25.43 69.892C25.886 71.72 26.744 73.386 27.509 75.099C28.819 78.033 27.672 81.029 26.758 83.888C25.272 88.529 26.225 92.027 28.102 96.345C29.168 98.796 30.709 102.025 29.696 104.755C29.241 105.982 28.425 107.036 27.416 107.859C29.53 107.185 31.228 105.562 32.19 103.502C32.653 104.34 33.248 105.094 34.03 105.672C35.468 106.74 39.915 109.211 41.581 107.412C41.747 107.23 41.862 106.951 41.773 106.703C41.206 105.117 39.776 103.803 38.833 102.428C37.429 100.383 36.655 97.867 36.13 95.473C35.689 93.475 35.894 91.325 35.58 89.291C35.201 86.826 34.304 84.379 33.414 82.055C31.546 77.178 29.489 72.528 28.918 67.26C28.605 64.375 29.397 61.725 30.248 59.016C30.483 58.269 30.833 57.545 31.216 56.838C31.585 56.943 31.97 57.027 32.376 57.078C36.167 57.568 38.831 55.945 41.112 52.994C42.616 51.051 43.121 48.629 42.825 46.32C46.559 48.023 51.382 47.947 54.307 45.512C56.739 43.487 57.953 40.781 58.036 38.086C59.736 39.812 62.332 40.609 65.076 39.607C66.586 39.054 68.304 37.834 69.033 36.252C69.58 37.047 70.262 37.775 71.12 38.397C74.006 40.483 78.531 40.812 81.75 39.444C84.625 38.219 87.175 36.567 88.666 33.899C89.719 37.204 93.065 40.094 96.443 41.185C99.558 42.192 102.386 41.385 104.526 39.602C103.957 41.379 103.838 43.5 105.076 44.846C105.969 45.817 106.9 46.329 107.831 46.496C107.801 47.357 107.854 48.254 107.959 49.252C108.305 52.516 109.059 55.863 109.751 59.068C110.408 62.111 111.441 65.123 112.95 67.849C113.656 69.124 114.636 70.306 115.426 71.537C116.212 72.766 116.194 74.242 116.956 75.395Z" fill="#D7711F"/>
<path d="M116.14 70.908C115.387 69.184 114.208 67.726 113.297 66.088C112.16 64.049 110.958 61.822 110.095 59.65C108.64 55.99 108.372 52.232 108.088 48.42C108.206 47.555 108.267 46.668 108.073 45.949C107.835 45.054 106.979 44.67 106.26 44.218C104.403 43.046 105.141 41.823 104.848 40.116C104.499 38.069 101.889 39.856 100.647 40.06C98.244 40.459 95.702 40.022 93.516 38.981C91.795 38.163 90.613 36.95 89.608 35.358C88.852 34.159 88.485 33.083 86.96 33.76C84.738 34.746 83.296 37.08 81.048 38.182C78.484 39.438 74.667 39.911 71.997 38.776C70.87 38.296 70.151 36.274 69.208 36.108C67.649 35.836 66.542 38.227 65.269 38.799C63.655 39.524 61.833 38.99 60.404 38.08C58.945 37.152 57.901 36.492 56.793 38.195C55.959 39.48 55.787 41.074 55.114 42.433C54.142 44.398 52.812 45.934 50.703 46.714C48.761 47.429 46.482 47.581 44.562 46.741C43.236 46.161 42.087 45.099 41.392 46.866C40.547 49.009 40.623 51.122 39.249 53.163C38.071 54.915 36.305 56.507 34.277 56.958C34.223 56.956 34.172 56.966 34.116 56.964C32.85 56.932 31.522 56.124 30.687 57.275C30.221 57.914 30.18 59.308 29.985 60.066C28.96 64.017 28.22 68.025 28.665 72.119C28.93 74.557 29.992 77.035 31.308 79.086C33.304 82.19 34.097 85.627 34.091 89.266C34.085 92.219 33.885 95.077 34.854 97.911C35.757 100.55 36.908 102.833 38.738 104.952C40.443 106.929 42.924 108.749 45.077 110.222C46.965 111.509 49.685 112.275 51.815 113.093C54 113.931 56.228 114.659 58.513 115.177C62.876 116.163 67.341 116.282 71.777 115.786C81.816 114.665 91.625 111.653 99.968 105.852C102.317 104.22 104.517 102.352 106.554 100.343C109.294 97.64 111.982 94.784 114.091 91.55C116.294 88.167 116.87 84.976 117.441 81.05C117.93 77.691 117.589 74.227 116.14 70.908Z" fill="#F4D9BF"/>
<path d="M120.227 63.705C118.866 61.615 115.881 59.809 113.481 60.996C112.596 61.435 112.016 62.17 111.657 63.049C112.401 64.278 112.978 65.666 113.78 66.86C114.757 68.309 116.635 71.505 117.214 74.137C117.267 74.375 117.314 74.612 117.337 74.85C118.556 74.698 119.7 74.161 120.513 73.112C122.642 70.375 122.024 66.461 120.227 63.705Z" fill="#EFCAA6"/>
<path d="M34.112 93.387C34.085 91.604 34.248 89.793 34.093 88.014C33.969 86.569 33.502 85.047 33.43 83.592C32.443 82.444 31.244 81.639 29.848 81.879C25.475 82.633 25.952 88.234 26.895 91.377C27.884 94.68 30.468 96.764 33.96 96.621C34.169 96.613 34.363 96.592 34.547 96.562C34.267 95.582 34.132 94.529 34.112 93.387Z" fill="#EFCAA6"/>
<path opacity="0.5" d="M117.745 64.352C116.526 64.239 115.463 65.297 114.909 66.28C114.608 66.813 114.466 67.397 114.413 67.995C114.616 68.317 114.809 68.645 114.997 68.978C115.099 68.374 115.249 67.776 115.431 67.202C115.826 65.966 116.915 65.511 117.866 64.811C118.065 64.664 117.999 64.377 117.745 64.352Z" fill="#874B37"/>
<path opacity="0.5" d="M34.103 88.258C34.091 88.143 34.08 88.029 34.067 87.916C33.596 87.264 33.002 86.701 32.308 86.414C31.101 85.91 29.463 85.846 28.627 87.016C28.343 87.412 28.862 87.774 29.219 87.618C30.263 87.161 31.093 87.028 32.163 87.528C32.79 87.821 33.483 88.448 34.048 89.061C34.046 88.793 34.064 88.52 34.103 88.258Z" fill="#874B37"/>
<path d="M103.377 66.059C101.429 65.519 99.245 66.645 97.702 67.778C96.556 68.62 94.94 70.561 95.032 72.053C95.038 72.176 95.198 72.198 95.241 72.082C96.456 68.789 99.905 66.678 103.331 66.391C103.514 66.375 103.573 66.111 103.377 66.059Z" fill="#C39368"/>
<path d="M50.729 78.025C50.624 78.089 50.713 78.23 50.823 78.185C52.72 77.386 54.936 77.175 56.828 78.062C58.419 78.81 59.27 80.31 60.371 81.57C60.575 81.804 60.989 81.564 60.893 81.271C59.49 76.934 54.345 75.781 50.729 78.025Z" fill="#C39368"/>
<path d="M70.415 97.227C66.999 97.149 64.015 95.559 60.79 94.778C60.829 94.628 60.714 94.435 60.537 94.507C58.272 95.425 57.499 98.429 57.095 100.579C56.638 103.001 57.78 105.704 59.792 107.083C62.206 108.739 64.807 108.444 67.011 106.599C69.179 104.783 71.079 100.751 70.958 97.929C71.019 97.605 70.845 97.234 70.415 97.227Z" fill="#F15860"/>
<path d="M65.563 96.51C63.271 97.953 62.638 102.051 62.672 104.529C62.675 104.707 62.925 104.701 62.943 104.531C63.226 101.791 64.489 99.227 66.103 97.056C66.345 96.73 65.886 96.305 65.563 96.51Z" fill="#D24E54"/>
<path d="M93.155 62.754C93.844 64.865 93.653 66.818 92.729 67.121C91.805 67.422 90.497 65.957 89.807 63.844C89.119 61.733 89.311 59.778 90.235 59.477C91.159 59.176 92.468 60.643 93.155 62.754Z" fill="#673121"/>
<path d="M90.72 61.777C90.874 62.431 90.769 63.015 90.484 63.086C90.195 63.152 89.838 62.678 89.681 62.022C89.527 61.368 89.632 60.782 89.919 60.715C90.206 60.646 90.565 61.121 90.72 61.777Z" fill="white"/>
<path d="M60.679 70.727C61.368 72.838 61.177 74.791 60.251 75.094C59.327 75.393 58.021 73.928 57.331 71.817C56.642 69.706 56.835 67.751 57.759 67.45C58.683 67.146 59.99 68.613 60.679 70.727Z" fill="#673121"/>
<path d="M58.243 69.748C58.397 70.402 58.292 70.988 58.005 71.059C57.718 71.125 57.36 70.649 57.203 69.995C57.05 69.341 57.155 68.755 57.442 68.688C57.729 68.617 58.087 69.094 58.243 69.748Z" fill="white"/>
<path d="M85.474 46.553C85.474 46.553 86.247 43.594 88.12 43.541C89.993 43.484 91.064 44.932 91.53 45.58C91.995 46.229 88.721 43.654 85.474 46.553Z" fill="#CC6809"/>
<path d="M54.479 55.949C54.479 55.949 55.25 52.992 57.126 52.934C59.001 52.88 60.068 54.328 60.535 54.977C61.001 55.625 57.726 53.049 54.479 55.949Z" fill="#CC6809"/>
<path d="M80.317 83.355C81.462 82.517 82.831 81.832 82.672 80.162C82.518 78.56 80.914 77.949 79.5 77.916C79.404 77.914 79.419 77.773 79.504 77.76C81.358 77.426 83.166 78.029 83.594 80.059C83.978 81.877 82.455 84.161 80.421 83.786C80.218 83.746 80.144 83.48 80.317 83.355Z" fill="#C39368"/>
<path d="M106.638 69.008C107.2 69.953 105.817 71.819 103.543 73.176C101.265 74.532 98.966 74.864 98.401 73.92C97.837 72.971 99.223 71.106 101.497 69.75C103.771 68.393 106.072 68.061 106.638 69.008Z" fill="#F9CBC0"/>
<path d="M58.452 83.039C58.182 84.107 55.885 84.449 53.317 83.805C50.747 83.159 48.883 81.769 49.151 80.701C49.422 79.633 51.721 79.291 54.288 79.934C56.857 80.582 58.721 81.971 58.452 83.039Z" fill="#F9CBC0"/>
<path d="M97.946 79.91C94.775 87.515 88.947 93.82 80.807 95.851C76.864 96.835 72.739 97.001 68.7 96.624C64.661 96.243 61.093 94.558 57.46 92.874C57.368 92.829 57.29 92.956 57.378 93.009C60.985 95.202 64.339 96.929 68.566 97.562C72.714 98.184 77.035 97.876 81.104 96.957C89.498 95.061 95.929 88.127 98.234 79.992C98.288 79.801 98.019 79.738 97.946 79.91Z" fill="#C39368"/>
</svg>
