<svg width="126" height="111" viewBox="0 0 126 111" fill="none" xmlns="http://www.w3.org/2000/svg">
<path d="M43.945 92.559C42.895 97.134 38.676 97.724 35.54 95.554C32.4 93.387 31.388 85.836 35.988 82.01C40.59 78.19 45.929 89.091 45.929 89.091C45.929 89.091 45.666 75.763 47.038 70.448C47.461 73.171 47.461 73.171 47.461 73.171C47.461 73.171 55.884 60.889 58.917 48.081C59.866 60.311 60.293 61.824 60.293 61.824C60.293 61.824 71.33 47.707 74.319 39.215C74.221 44.906 73.106 48.74 73.106 48.74C73.106 48.74 83.441 39.439 86.669 33.102C88.731 41.497 90.771 45.212 90.771 45.212C90.771 45.212 97.588 39.05 98.768 31.423C103.444 34.936 105.581 37.608 106.395 38.803C106.378 38.714 106.371 38.656 106.371 38.656C106.371 38.656 111.219 42.839 112.966 45.775C114.487 42.922 113.305 36.858 113.305 36.858C113.305 36.858 120.695 40.052 122.805 42.919C123.958 35.977 118.497 26.756 114.458 24.546C119.733 20.707 125.687 23.478 125.687 23.478C125.687 23.478 117.753 14.412 106.912 15.937C111.503 12.074 110.412 5.68899 110.412 5.68899C110.412 5.68899 107.663 14.635 97.96 9.177C82.026 0.205999 54.137 -4.005 31.965 8.785C19.895 15.411 15.682 29.008 15.682 29.008L12.284 22.816C12.284 22.816 11.454 31.931 13.291 34.549C5.73199 37.287 1.30999 45.358 0.0549927 49.673C5.28399 45.996 8.78699 44.676 8.78699 44.676C8.78699 44.676 -0.282009 57.376 3.09199 69.619C6.31599 64.493 9.11399 62.016 9.11399 62.016C9.11399 62.016 5.41099 76.536 8.01299 82.488C10.534 76.809 12.71 75.881 12.71 75.881C12.71 75.881 10.155 83.462 10.557 85.656C10.557 85.656 16.712 84.157 27.421 91.424C40.155 100.675 50.508 106.803 57.891 105.833C57.89 105.835 48.008 101.135 43.945 92.559Z" fill="#513300"/>
<path d="M109.495 69.027C105.624 61.49 106.712 58.339 107.331 52.627C107.906 47.338 106.594 39.872 106.396 38.804C105.582 37.609 103.445 34.937 98.769 31.424C97.589 39.051 90.772 45.213 90.772 45.213C90.772 45.213 88.732 41.498 86.67 33.103C83.441 39.44 73.107 48.741 73.107 48.741C73.107 48.741 74.222 44.907 74.32 39.216C71.331 47.708 60.294 61.825 60.294 61.825C60.294 61.825 59.867 60.312 58.918 48.082C55.885 60.89 47.462 73.172 47.462 73.172C47.462 73.172 47.462 73.172 47.039 70.449C45.667 75.764 45.93 89.092 45.93 89.092C45.93 89.092 40.591 78.191 35.989 82.011C31.388 85.837 32.401 93.388 35.541 95.555C38.677 97.725 42.896 97.135 43.946 92.56C48.009 101.136 57.89 105.835 57.89 105.835C57.89 105.835 75.418 116.481 93.363 106.62C111.309 96.763 116.253 80.351 109.495 69.027Z" fill="#F4D9BF"/>
<path d="M74.678 70.166C74.681 70.167 74.537 68.786 74.747 66.747C74.799 66.237 74.865 65.683 74.97 65.103C75.076 64.526 75.182 63.906 75.36 63.283C75.533 62.661 75.698 62.007 75.962 61.36C76.204 60.709 76.509 60.052 76.907 59.41C77.316 58.774 77.746 58.157 78.628 57.627C78.795 57.551 78.876 57.482 79.107 57.402C79.375 57.325 79.649 57.268 79.915 57.232C80.378 57.239 80.823 57.282 81.19 57.43C81.961 57.677 82.511 58.116 82.981 58.534C83.459 58.948 83.835 59.393 84.148 59.812C84.791 60.649 85.192 61.419 85.455 61.959C85.716 62.505 85.822 62.835 85.822 62.835C85.822 62.835 85.571 62.602 85.136 62.197C84.701 61.793 84.082 61.223 83.324 60.612C82.946 60.306 82.525 60.004 82.08 59.721C81.64 59.44 81.144 59.213 80.699 59.119C80.474 59.045 80.268 59.08 80.094 59.082C80.039 59.116 79.997 59.127 79.944 59.122C79.863 59.132 79.675 59.263 79.547 59.331L79.442 59.392L79.384 59.422L79.38 59.427C79.609 59.285 79.442 59.392 79.49 59.362L79.483 59.368L79.467 59.383L79.343 59.517C79.261 59.607 79.163 59.665 79.083 59.778C78.921 60.008 78.741 60.201 78.597 60.472C78.44 60.721 78.285 60.976 78.154 61.257C78.012 61.532 77.871 61.808 77.752 62.102C77.49 62.667 77.244 63.246 77.035 63.816C76.592 64.959 76.206 66.052 75.863 66.995C75.197 68.886 74.678 70.166 74.678 70.166Z" fill="#513300"/>
<path d="M97.166 60.765C97.166 60.765 96.977 59.774 97.056 58.311C97.088 57.576 97.183 56.726 97.388 55.819C97.605 54.912 97.854 53.951 98.515 52.96C98.613 52.833 98.678 52.722 98.802 52.594C98.926 52.463 99.063 52.339 99.194 52.219C99.342 52.101 99.586 51.992 99.793 51.904L99.87 51.877L99.906 51.862L99.921 51.855C99.985 51.843 99.79 51.881 100.067 51.826L100.079 51.827L100.169 51.822L100.343 51.808L100.428 51.802L100.588 51.813C100.699 51.824 100.808 51.833 100.917 51.848C101.158 51.887 101.288 51.948 101.429 52.007C101.731 52.117 101.951 52.27 102.185 52.407C103.041 53.01 103.596 53.696 104.031 54.308C104.883 55.534 105.167 56.502 105.167 56.502C105.167 56.502 104.336 55.93 103.207 55.112C102.639 54.716 101.977 54.252 101.303 53.93C101.144 53.869 100.972 53.782 100.829 53.765C100.757 53.744 100.671 53.724 100.683 53.744C100.673 53.747 100.667 53.74 100.662 53.73C100.66 53.729 100.662 53.721 100.65 53.718L100.563 53.732L100.391 53.753L100.304 53.774L100.292 53.773C100.566 53.719 100.366 53.758 100.429 53.746V53.754L100.43 53.763C100.431 53.794 100.443 53.753 100.409 53.787C100.374 53.83 100.338 53.869 100.291 53.905C100.248 53.949 100.199 54.04 100.15 54.103C99.945 54.378 99.763 54.775 99.581 55.152C99.409 55.544 99.216 55.941 99.067 56.337C98.749 57.136 98.452 57.9 98.17 58.556C97.638 59.872 97.166 60.765 97.166 60.765Z" fill="#513300"/>
<path d="M100.624 79.273C100.624 79.273 100.706 79.105 100.909 78.826C101.016 78.696 101.144 78.542 101.312 78.368C101.493 78.215 101.693 78.034 101.934 77.86C102.192 77.72 102.462 77.533 102.784 77.404C103.111 77.31 103.46 77.156 103.836 77.112C104.205 77.092 104.61 77.018 105.005 77.055C105.397 77.124 105.794 77.19 106.191 77.255C106.462 77.34 106.564 77.4 106.759 77.474C106.929 77.537 107.17 77.71 107.358 77.839C107.714 78.153 108.001 78.643 107.973 79.11C107.987 79.575 107.827 79.954 107.661 80.264C107.497 80.58 107.301 80.837 107.104 81.058C106.723 81.502 106.346 81.804 106.077 82.003C105.805 82.196 105.638 82.289 105.638 82.289C105.638 82.289 105.744 82.137 105.936 81.862C106.12 81.592 106.374 81.203 106.634 80.728C106.764 80.494 106.885 80.229 106.98 79.962C107.079 79.688 107.126 79.401 107.095 79.164C107.096 78.912 106.914 78.762 106.748 78.586C106.625 78.525 106.577 78.45 106.401 78.385C106.245 78.331 106.006 78.237 105.921 78.215C105.584 78.148 105.245 78.082 104.914 78.017C104.584 77.976 104.256 77.997 103.934 77.981C103.619 77.996 103.314 78.077 103.018 78.11C102.729 78.187 102.464 78.291 102.205 78.363C101.958 78.474 101.737 78.577 101.541 78.67C101.348 78.786 101.18 78.89 101.043 78.969C100.777 79.148 100.624 79.273 100.624 79.273Z" fill="#C39368"/>
<path d="M107.196 91.236C107.196 91.236 107.187 91.3 107.155 91.421C107.119 91.545 107.076 91.732 106.974 91.947C106.876 92.168 106.732 92.418 106.556 92.708C106.372 92.988 106.15 93.302 105.861 93.596C105.589 93.914 105.254 94.213 104.889 94.516C104.513 94.801 104.118 95.12 103.665 95.369C103.231 95.648 102.758 95.897 102.267 96.124C101.79 96.372 101.266 96.532 100.762 96.747C100.249 96.943 99.72 97.061 99.205 97.217C98.696 97.392 98.17 97.452 97.677 97.565C96.679 97.792 95.734 97.844 94.932 97.936C94.53 97.98 94.156 97.968 93.825 97.978C93.5 97.981 93.212 97.986 92.978 97.987C92.507 97.989 92.237 97.977 92.237 97.977C92.237 97.977 92.499 97.9 92.956 97.794C93.185 97.741 93.463 97.678 93.778 97.605C94.094 97.53 94.461 97.464 94.845 97.365C95.231 97.269 95.649 97.16 96.094 97.061C96.539 96.971 97.001 96.836 97.478 96.709C97.954 96.572 98.451 96.458 98.94 96.295C99.427 96.129 99.942 96 100.423 95.807C100.907 95.615 101.418 95.472 101.873 95.246C102.343 95.036 102.813 94.848 103.233 94.608C103.673 94.392 104.067 94.148 104.45 93.918C104.815 93.668 105.175 93.437 105.468 93.189C106.08 92.706 106.532 92.225 106.8 91.853C107.082 91.483 107.196 91.236 107.196 91.236Z" fill="#C39368"/>
<path d="M87.865 98.095C79.437 97.9 74.09 94.452 74.09 94.452C74.09 94.452 74.09 97.653 75.125 100.626C83.731 103.474 86.789 100.411 87.865 98.095Z" fill="white"/>
<path d="M87.865 98.095C86.789 100.41 83.731 103.474 75.125 100.626C75.88 102.799 77.183 104.853 79.46 105.454C84.854 106.875 90.478 104.014 94.379 97.595C92.05 98.007 89.873 98.143 87.865 98.095Z" fill="#ED6C73"/>
<path d="M84.918 77.195C85.535 79.383 86.725 80.84 87.566 80.446C88.416 80.056 88.59 77.968 87.97 75.785C87.356 73.59 86.161 72.137 85.316 72.532C84.468 72.918 84.289 75.011 84.918 77.195Z" fill="#673121"/>
<path d="M86.192 74.723C86.423 75.37 86.814 75.768 87.063 75.626C87.313 75.484 87.326 74.847 87.089 74.208C86.854 73.573 86.462 73.17 86.209 73.316C85.965 73.454 85.953 74.092 86.192 74.723Z" fill="white"/>
<path d="M104.533 68.276C105.154 70.46 106.34 71.921 107.182 71.527C108.033 71.132 108.209 69.045 107.586 66.861C106.967 64.67 105.775 63.216 104.932 63.608C104.085 64 103.904 66.092 104.533 68.276Z" fill="#673121"/>
<path d="M105.808 65.801C106.042 66.45 106.433 66.847 106.682 66.705C106.935 66.561 106.944 65.929 106.708 65.288C106.468 64.651 106.079 64.249 105.829 64.392C105.576 64.534 105.57 65.168 105.808 65.801Z" fill="white"/>
<path d="M34.944 88.893C34.944 88.893 34.947 88.769 35.013 88.566C35.08 88.367 35.202 88.074 35.465 87.784C35.602 87.651 35.76 87.492 35.966 87.391C36.165 87.262 36.408 87.189 36.658 87.139C36.914 87.111 37.179 87.085 37.442 87.14C37.71 87.162 37.941 87.268 38.194 87.341C38.429 87.441 38.633 87.577 38.853 87.695C39.062 87.814 39.229 87.987 39.41 88.121C39.764 88.406 40.012 88.746 40.241 89.01C40.648 89.595 40.838 90.03 40.838 90.03C40.838 90.03 40.395 89.818 39.85 89.429C39.547 89.271 39.241 89.03 38.892 88.833C38.546 88.624 38.185 88.416 37.815 88.267C37.631 88.208 37.452 88.103 37.27 88.086C37.089 88.042 36.918 88.018 36.747 88.012C36.585 88.029 36.415 88.018 36.261 88.074C36.101 88.105 35.962 88.174 35.823 88.232C35.28 88.522 34.944 88.893 34.944 88.893Z" fill="#C39368"/>
<path d="M37.512 92.179C37.512 92.179 37.404 91.881 37.418 91.457C37.422 91.031 37.553 90.472 37.856 89.968C37.93 89.848 38.024 89.728 38.117 89.616C38.199 89.495 38.33 89.408 38.43 89.312C38.656 89.13 38.915 89.011 39.141 88.958C39.377 88.913 39.575 88.912 39.705 88.958C39.836 88.994 39.903 89.022 39.903 89.022C39.903 89.022 39.842 89.069 39.745 89.154C39.644 89.214 39.534 89.348 39.41 89.466C39.295 89.605 39.18 89.751 39.062 89.928C38.951 90.107 38.813 90.286 38.703 90.493C38.456 90.888 38.192 91.314 37.958 91.633C37.729 91.958 37.512 92.179 37.512 92.179Z" fill="#C39368"/>
<path d="M83.965 84.187C83.865 85.583 81.063 86.513 77.714 86.261C74.358 86.005 71.726 84.664 71.824 83.271C71.931 81.879 74.732 80.956 78.084 81.208C81.438 81.458 84.072 82.796 83.965 84.187Z" fill="#F9CBC0"/>
<g opacity="0.5">
<path d="M114.459 24.546C119.734 20.707 125.688 23.478 125.688 23.478C125.688 23.478 124.992 22.683 123.743 21.609C120.225 20.273 115.136 19.431 110.145 22.503C116.22 27.465 119.622 37.102 119.622 37.102C119.622 37.102 114.903 33.286 109.657 30.631C110.958 33.263 109.945 38.046 109.945 38.046C109.945 38.046 102.632 27.65 95.195 22.853C97.645 28.641 92.513 39.18 92.513 39.18L85.619 18.943C85.619 18.943 83.437 29.021 79.315 36.09C80.246 27.716 78.622 25.551 78.622 25.551L64.511 47.575L61.426 34.271C61.426 34.271 56.978 52.147 47.981 63.061C47.353 54.237 46.98 49.052 46.98 49.052C46.98 49.052 40.088 64.341 42.36 77.217C42.36 77.217 32.622 70.626 30.391 66.029C32.616 71.941 34.294 78.444 34.294 78.444L24.5 68.83L24.811 76.81C24.811 76.81 15.703 64.807 7.336 80.048C7.488 80.956 7.703 81.785 8.012 82.489C10.533 76.81 12.709 75.882 12.709 75.882C12.709 75.882 10.154 83.463 10.556 85.657C10.556 85.657 16.711 84.158 27.42 91.425C40.154 100.676 50.507 106.804 57.89 105.834C57.89 105.834 48.008 101.135 43.946 92.559C42.896 97.134 38.677 97.724 35.541 95.554C32.401 93.387 31.389 85.836 35.989 82.01C40.591 78.19 45.93 89.091 45.93 89.091C45.93 89.091 45.667 75.763 47.039 70.448C47.462 73.171 47.462 73.171 47.462 73.171C47.462 73.171 55.885 60.889 58.918 48.081C59.867 60.311 60.294 61.824 60.294 61.824C60.294 61.824 71.331 47.707 74.32 39.215C74.222 44.906 73.107 48.74 73.107 48.74C73.107 48.74 83.442 39.439 86.67 33.102C88.732 41.497 90.772 45.212 90.772 45.212C90.772 45.212 97.589 39.05 98.769 31.423C103.445 34.936 105.582 37.608 106.396 38.803C106.379 38.714 106.372 38.656 106.372 38.656C106.372 38.656 111.22 42.839 112.967 45.775C114.488 42.922 113.306 36.858 113.306 36.858C113.306 36.858 120.696 40.052 122.806 42.919C123.959 35.977 118.498 26.756 114.459 24.546Z" fill="#513300"/>
</g>
</svg>
