<svg width="129" height="129" viewBox="0 0 129 129" fill="none" xmlns="http://www.w3.org/2000/svg">
<path d="M69.62 121.486C69.62 121.486 73.779 124.286 83.035 119.09C83.035 119.09 74.424 126.356 81.967 124.285C86.812 122.957 92.713 118.745 93.978 117.056C93.978 117.056 91.239 121.274 93.559 121.696C95.876 122.119 103.041 116.428 105.993 109.471C105.993 109.471 106.626 115.582 109.578 114.95C112.528 114.316 114.214 100.619 114.214 100.619C114.214 100.619 114.003 106.519 116.321 106.308C118.637 106.097 125.595 88.598 118.637 79.746C118.637 79.746 122.644 83.753 124.542 82.906C126.44 82.068 126.44 72.583 120.117 67.942C120.117 67.942 124.331 70.682 125.807 69.419C127.283 68.153 124.542 61.828 120.117 58.462C120.117 58.462 125.596 58.667 127.913 56.561C130.234 54.456 121.17 44.759 114.003 42.019C114.003 42.019 116.743 42.864 119.482 40.964C122.221 39.068 119.271 30.427 101.144 28.11C101.144 28.11 105.573 24.948 106.204 22.419C106.834 19.886 92.925 15.039 84.918 16.73C84.918 16.73 89.341 12.301 88.711 8.71601C88.077 5.13101 78.172 8.927 74.165 13.145C74.165 13.145 71.003 2.391 67.211 2.391C63.417 2.391 65.102 11.033 65.102 11.033C65.102 11.033 55.196 0.0760247 48.875 0.709025C42.55 1.34202 50.136 8.50602 50.136 8.50602C50.136 8.50602 42.128 4.082 37.28 5.555C32.432 7.034 41.284 12.09 41.284 12.09C41.284 12.09 28.639 9.35001 24.636 11.879C20.629 14.406 29.481 18.202 29.481 18.202C29.481 18.202 21.685 14.195 19.364 14.617C17.044 15.04 20.84 22.631 20.84 22.631C20.84 22.631 15.784 17.147 13.886 17.991C11.988 18.835 12.832 27.054 12.832 27.054C12.832 27.054 10.512 25.582 8.403 26.21C6.298 26.843 10.094 33.59 10.094 33.59C10.094 33.59 2.56297 30.47 3.34697 34.012C3.76897 35.907 6.50899 38.858 6.50899 38.858C6.50899 38.858 -2.85901 43.987 1.44899 44.548C6.29799 45.184 11.777 43.287 11.777 43.287C11.777 43.287 5.24198 53.824 9.88298 55.091C14.517 56.352 69.62 121.486 69.62 121.486Z" fill="#8D2300"/>
<path opacity="0.6" d="M127.912 56.563C128.784 55.774 128.051 53.909 126.413 51.748C126.549 52.775 126.277 53.717 125.282 54.416C121.975 56.727 118.297 55.2 114.945 53.257C117.444 56.058 119.876 59.117 119.568 62.677C119.516 63.28 119.016 63.733 118.395 63.57C116.777 63.153 115.425 62.526 114.17 61.67C115.097 66.377 116.243 74.662 110.644 72.96C107.698 72.061 107.116 67.102 106.923 63.167C105.149 66.829 102.383 71.289 99.251 68.609C95.672 65.555 99.58 59.298 101.987 54.404C99.992 56.589 97.603 58.26 95.466 55.967C91.429 51.629 96.463 44.157 96.911 38.768C93.12 42.739 89.378 50.602 83.41 48.756C77.328 46.873 76.893 36.82 75.505 30.918C72.92 35.85 71.517 46.637 64.759 45.063C59.225 43.772 57.047 37.441 54.797 32.379C54.432 37.688 53.696 45.979 49.662 46.681C46.041 47.309 44.496 43.41 43.827 39.203C43.108 42.872 41.793 46.251 38.546 46.528C34.268 46.897 34.715 40.537 35.355 35.884C32.962 39.77 29.631 44.67 26.394 44.489C22.749 44.284 24.01 40.518 25.754 37.097C22.918 39.913 19.892 42.57 16.03 43.547C15.43 43.697 14.884 43.264 14.856 42.653C14.736 39.738 16.347 37.789 18.06 35.792C13.605 37.428 8.74998 38.941 5.12398 34.929C4.55798 34.309 3.96598 33.476 3.65798 32.685C3.34398 32.944 3.20499 33.366 3.34999 34.012C3.77199 35.907 6.51198 38.858 6.51198 38.858C6.51198 38.858 -2.85602 43.987 1.45198 44.548C6.30098 45.184 11.78 43.287 11.78 43.287C11.78 43.287 5.24497 53.824 9.88597 55.091C14.52 56.352 69.623 121.486 69.623 121.486C69.623 121.486 73.782 124.286 83.038 119.09C83.038 119.09 74.427 126.356 81.97 124.285C86.815 122.957 92.716 118.745 93.981 117.056C93.981 117.056 91.242 121.274 93.562 121.696C95.879 122.119 103.044 116.428 105.996 109.471C105.996 109.471 106.629 115.582 109.581 114.95C112.531 114.316 114.217 100.619 114.217 100.619C114.217 100.619 114.006 106.519 116.324 106.308C118.64 106.097 125.598 88.598 118.64 79.746C118.64 79.746 122.647 83.753 124.545 82.906C126.443 82.068 126.443 72.583 120.12 67.942C120.12 67.942 124.334 70.682 125.81 69.419C127.286 68.153 124.545 61.828 120.12 58.462C120.116 58.464 125.594 58.669 127.912 56.563Z" fill="#6D2300"/>
<path d="M96.087 82.07C96.087 82.07 94.4 84.598 94.189 87.128C93.978 89.655 83.861 80.381 93.978 66.262C93.978 66.262 86.18 71.53 83.861 69.845C81.545 68.156 89.551 56.986 89.551 56.986C89.551 56.986 80.91 65.84 76.062 64.155C71.213 62.467 74.797 48.134 74.797 48.134C74.797 48.134 72.691 55.719 69.318 58.465C65.944 61.203 57.726 44.973 57.726 44.973C57.726 44.973 54.986 53.615 50.768 54.67C46.554 55.719 44.234 46.867 44.234 46.867C44.234 46.867 42.972 54.036 37.702 54.458C32.43 54.881 33.064 44.549 33.064 44.549C33.064 44.549 25.477 53.403 21.895 53.19C18.31 52.979 21.261 45.396 21.261 45.396C21.261 45.396 12.62 53.19 9.67001 53.404C7.83001 53.535 10.087 47.52 12.202 42.922C8.898 46.487 5.875 51.871 5.875 59.727C5.875 64.367 7.98399 71.531 5.03299 79.122C2.08499 86.706 -6.35001 103.149 14.727 120.009C35.805 136.875 85.966 129.285 92.712 100.2C92.712 100.2 101.987 105.256 106.202 95.135C110.418 85.021 102.411 78.698 96.087 82.07Z" fill="#F4D9BF"/>
<path d="M34.961 122.542C26.094 123.525 19.365 116.642 16.415 107.789C18.824 108.899 22.608 109.497 25.128 109.75C33.047 110.563 41.043 106.146 47.608 102.025C47.94 110.346 44.126 121.522 34.961 122.542Z" fill="#930323"/>
<path d="M102.296 92.492C101.113 90.591 99.165 89.589 97.07 90.922C95.104 92.179 93.869 94.514 94.111 96.85C94.15 97.228 94.675 97.163 94.687 96.8C94.755 95.334 95.464 93.971 96.492 93.034C96.573 93.132 96.66 93.228 96.768 93.349C97.04 93.663 97.166 94.17 97.29 94.55C97.517 95.244 97.697 96.203 97.637 96.939C97.625 97.091 97.836 97.175 97.897 97.025C98.222 96.198 98.368 95.534 98.229 94.646C98.121 93.934 97.892 92.998 97.521 92.311C98.875 91.599 100.516 91.575 102.001 92.763C102.182 92.915 102.418 92.684 102.296 92.492Z" fill="#C39368"/>
<path d="M21.214 95.708C20.224 94.514 19.633 92.395 20.26 90.916C21.014 89.149 23.618 90.633 25.112 91.478C25.842 89.814 26.548 87.598 25.47 85.921C25.389 85.926 25.307 85.982 25.313 86.084C25.353 86.939 25.292 87.973 24.683 88.625C24.537 88.78 24.436 88.986 24.351 89.197C22.577 88.208 20.073 88.195 18.987 89.819C16.724 93.184 20.909 98.965 24.581 98.99C24.774 98.99 24.798 98.749 24.69 98.64C23.61 97.548 22.217 96.921 21.214 95.708Z" fill="#C39368"/>
<path d="M48.417 102.658C48.368 102.147 47.958 101.923 47.56 101.947C47.297 101.675 46.891 101.549 46.48 101.808C37.067 107.847 17.794 113.967 10.676 101.139C10.564 100.933 10.262 101.114 10.329 101.32C11.294 104.294 13.464 106.387 16.11 107.812C18.101 116.308 25.299 123.18 34.212 123.102C44.458 123.013 49.222 111.337 48.417 102.658ZM34.088 121.583C25.221 122.566 20.577 114.98 17.074 108.294C19.488 109.404 22.197 110.021 24.717 110.273C32.64 111.087 40.266 107.744 46.835 103.624C47.164 111.946 43.251 120.562 34.088 121.583Z" fill="#C39368"/>
<path d="M46.872 75.958C42.865 76.06 42.178 79.682 42.056 81.858C43.396 80.103 45.658 78.951 47.795 79.832C49.086 80.362 49.883 81.348 50.383 82.506C50.593 82.439 50.658 81.087 50.769 80.912C51.198 81.304 51.84 81.558 52.351 81.858C52.9 82.172 53.352 82.879 53.201 82.366C52.285 79.24 50.112 75.874 46.872 75.958Z" fill="#5A3900"/>
<path d="M16.635 75.414C16.503 75.367 16.357 75.33 16.21 75.3C15.615 75.295 15.006 75.392 14.379 75.669C12.701 76.41 11.53 77.546 10.926 79.096C11.108 79.144 11.299 79.157 11.481 79.072C11.777 78.94 12.036 78.753 12.287 78.56C12.163 78.825 12.073 79.096 12.024 79.373C11.735 79.712 11.517 80.085 11.424 80.489C11.355 80.778 11.422 81.087 11.566 81.347C13.099 79.456 15.174 78.045 17.627 79.367C18.421 79.796 19.006 80.471 19.461 81.25C19.235 79.125 18.946 76.271 16.635 75.414Z" fill="#5A3900"/>
<path d="M45.141 60.558C39.653 60.788 38.34 67.189 38.666 71.451C38.693 71.812 39.179 71.801 39.266 71.473C40.178 68.058 41.418 64.143 45.37 63.346C49.733 62.471 51.891 68.668 53.812 71.312C54.062 71.654 54.741 71.582 54.775 71.093C55.156 65.711 50.758 60.328 45.141 60.558Z" fill="#8D2300"/>
<path d="M14.106 63.001C11.487 63.062 8.726 67.305 9.372 69.706C9.466 70.049 9.92099 70.159 10.19 69.971C11.69 68.91 12.124 66.828 13.59 65.663C15.865 63.859 18.33 69.94 18.906 71.298C19.024 71.575 19.434 71.498 19.415 71.19C19.241 68.052 18.131 62.905 14.106 63.001Z" fill="#8D2300"/>
<path d="M59.194 90.935C59.239 93.246 55.236 95.147 50.239 95.183C45.242 95.219 41.152 93.378 41.094 91.062C41.04 88.755 45.049 86.85 50.046 86.814C55.039 86.776 59.133 88.617 59.194 90.935Z" fill="#F9CBC0"/>
<path d="M16.912 89.251C16.415 90.987 13.484 91.64 10.358 90.698C7.233 89.762 5.096 87.591 5.591 85.847C6.08 84.103 9.01898 83.456 12.141 84.392C15.265 85.335 17.401 87.506 16.912 89.251Z" fill="#F9CBC0"/>
</svg>
