<svg width="123" height="122" viewBox="0 0 123 122" fill="none" xmlns="http://www.w3.org/2000/svg">
<path d="M103.19 81.389C101.957 85.877 102.3 91.635 99.754 95.84C99.754 95.84 106.217 91.524 111.2 83.236C111.2 83.236 106.184 82.984 103.19 81.389Z" fill="#EC7B23"/>
<path d="M103.415 44.268C102.433 50.735 93.056 37.965 93.056 37.965C93.056 37.965 95.187 48.279 92.286 49.022C89.388 49.758 79.262 36.754 79.262 36.754C79.262 36.754 74.257 46.9 72.947 46.494C71.636 46.086 71.095 43.867 72.514 37.324C68.436 41.191 55.03 46.672 53.025 45.844C51.023 45.014 50.927 43.344 56.382 37.031C47.384 42.855 28.198 51.06 26.067 49.986C23.936 48.912 29.199 39.256 29.199 39.256C29.199 39.256 27.915 40.088 23.041 44.527C18.17 48.965 14.161 53.265 13.225 49.685C11.879 59.947 11.115 74.29 8.98401 82.458C9.68101 104.648 32.249 120.753 56.756 121.189C84.162 120.884 97.466 99.925 97.466 99.925C108.499 84.262 107.24 61.68 103.415 44.268Z" fill="#F4D9BF"/>
<path d="M114.709 75.299C112.563 66.695 108.079 67.473 105.359 68.916C104.955 73.988 103.983 79.006 102.284 83.854C105.161 85.655 108.078 84.737 108.078 84.737C112.419 84.65 114.567 80.387 114.709 75.299Z" fill="#F4D9BF"/>
<path d="M8.24699 65.711C8.423 65.906 8.52898 66.01 8.52898 66.01C6.84098 65.404 0.387996 68.49 0.772996 75.178C1.157 81.871 6.82398 86.1 8.98198 82.459C9.99698 78.572 10.7 73.287 11.304 67.707C10.417 66.619 9.358 66.006 8.24699 65.711Z" fill="#F4D9BF"/>
<path d="M115.185 52.652C115.185 52.652 120.197 58.318 120.969 56.502C126.165 40.459 113.706 31.656 113.706 31.656C113.706 31.656 123.371 34.252 122.702 31.783C117.715 21.402 104.351 20.041 104.351 20.041C104.351 20.041 111.763 16.146 109.559 14.316C106.495 11.572 97.165 10.627 87.352 17.525C87.426 11.513 81.853 3.742 81.853 3.742C81.853 3.742 80.596 5.14801 79.463 12.463C65.48 -6.56799 35.569 3.05102 35.569 3.05102C35.569 3.05102 35.535 3.69197 40.472 6.69897C27.652 3.85097 11.764 19.793 12.171 20.572C12.584 21.353 15.148 22.027 15.148 22.027C4.97901 28.072 1.186 42.242 1.186 42.242C1.186 42.242 3.14299 42.851 5.88599 40.941C0.219986 55.636 6.78699 64.082 8.24399 65.711C9.35499 66.006 10.414 66.619 11.302 67.707C11.966 61.562 12.515 55.064 13.221 49.686C14.158 53.266 18.166 48.965 23.037 44.528C27.911 40.088 29.195 39.257 29.195 39.257C29.195 39.257 23.932 48.913 26.063 49.987C28.194 51.061 47.379 42.856 56.378 37.032C50.924 43.345 51.02 45.014 53.021 45.845C55.026 46.673 68.432 41.193 72.51 37.325C71.09 43.868 71.632 46.087 72.943 46.495C74.253 46.901 79.258 36.755 79.258 36.755C79.258 36.755 89.384 49.759 92.282 49.023C95.182 48.281 93.052 37.966 93.052 37.966C93.052 37.966 102.429 50.735 103.411 44.269C105.175 52.285 106.015 60.671 105.355 68.917C108.075 67.474 112.559 66.696 114.705 75.3C121.318 64.621 115.185 52.652 115.185 52.652Z" fill="#EC7B23"/>
<path d="M31.014 76.402C30.863 78.693 31.459 80.631 32.356 80.726C33.255 80.826 34.111 79.046 34.266 76.749C34.424 74.458 33.828 72.524 32.929 72.431C32.031 72.334 31.176 74.111 31.014 76.402Z" fill="#461A00"/>
<path d="M32.999 74.867C33.002 75.56 33.226 76.133 33.5 76.138C33.771 76.142 33.993 75.579 33.986 74.878C33.982 74.179 33.763 73.616 33.484 73.612C33.217 73.607 32.995 74.168 32.999 74.867Z" fill="white"/>
<path d="M71.021 73.4C71.002 75.701 71.708 77.597 72.607 77.64C73.516 77.685 74.26 75.865 74.293 73.562C74.316 71.269 73.609 69.369 72.708 69.328C71.804 69.279 71.056 71.104 71.021 73.4Z" fill="#461A00"/>
<path d="M72.919 71.752C72.962 72.449 73.215 73.004 73.487 72.994C73.764 72.98 73.949 72.408 73.905 71.713C73.858 71.016 73.609 70.463 73.33 70.477C73.065 70.482 72.873 71.057 72.919 71.752Z" fill="white"/>
<path d="M24.67 67.676C24.67 67.676 24.714 66.094 25.425 63.823C25.791 62.696 26.338 61.389 27.259 60.155C27.498 59.852 27.77 59.561 28.034 59.262C28.346 59.004 28.634 58.703 28.991 58.487C29.361 58.284 29.702 58.016 30.122 57.899L30.732 57.682C30.939 57.623 31.157 57.612 31.372 57.573C31.604 57.55 31.757 57.507 32.059 57.505L32.639 57.54C33.003 57.532 33.462 57.651 33.885 57.751C34.317 57.837 34.666 58.048 35.052 58.198C35.399 58.401 35.746 58.606 36.061 58.837C36.677 59.308 37.209 59.837 37.635 60.386C38.076 60.925 38.424 61.478 38.709 62.005C39.288 63.052 39.597 63.995 39.812 64.646C40.017 65.302 40.074 65.691 40.074 65.691C40.074 65.691 39.914 65.332 39.6 64.732C39.295 64.126 38.798 63.294 38.137 62.367C37.806 61.904 37.416 61.427 36.973 60.967C36.537 60.494 36.017 60.076 35.463 59.684C35.18 59.498 34.874 59.346 34.571 59.186C34.248 59.086 33.927 58.911 33.606 58.854C33.282 58.793 32.997 58.682 32.581 58.694L32.001 58.674L31.532 58.739C31.363 58.766 31.188 58.772 31.023 58.811L30.538 58.981C30.199 59.059 29.919 59.284 29.615 59.438C29.318 59.612 29.067 59.86 28.786 60.057C28.544 60.307 28.294 60.545 28.068 60.805C27.633 61.34 27.236 61.887 26.908 62.448C26.583 63.007 26.299 63.553 26.051 64.071C25.573 65.11 25.217 66.014 25.008 66.659C24.787 67.299 24.67 67.676 24.67 67.676Z" fill="#EC7B23"/>
<path d="M66.725 63.195C66.725 63.195 66.754 62.791 66.9 62.088C67.059 61.395 67.294 60.391 67.785 59.25C68.03 58.676 68.321 58.062 68.726 57.463C69.104 56.852 69.585 56.244 70.17 55.69C70.448 55.397 70.802 55.17 71.126 54.903C71.484 54.688 71.856 54.462 72.25 54.292C73.069 53.978 73.909 53.749 74.838 53.767L75.442 53.788C75.654 53.809 75.898 53.88 76.124 53.929C76.602 54.011 76.998 54.2 77.393 54.39C78.188 54.765 78.821 55.341 79.392 55.9C79.933 56.492 80.384 57.115 80.756 57.724C81.129 58.341 81.424 58.945 81.672 59.511C82.631 61.798 82.824 63.431 82.824 63.431C82.824 63.431 82.672 63.052 82.387 62.404C82.113 61.756 81.665 60.849 81.069 59.814C80.764 59.302 80.416 58.761 80.025 58.21C79.626 57.667 79.161 57.142 78.657 56.634C78.382 56.405 78.118 56.155 77.825 55.946C77.509 55.782 77.234 55.522 76.895 55.409C76.566 55.259 76.232 55.106 75.909 55.061C75.741 55.032 75.598 54.971 75.408 54.952L74.802 54.942C74.11 54.909 73.353 55.09 72.687 55.337C72.356 55.478 72.039 55.653 71.724 55.821C71.432 56.038 71.117 56.21 70.86 56.458C70.327 56.925 69.835 57.429 69.438 57.966C69.028 58.493 68.683 59.04 68.386 59.552C67.798 60.583 67.37 61.497 67.118 62.156C66.856 62.811 66.725 63.195 66.725 63.195Z" fill="#EC7B23"/>
<path d="M56.848 82.908C56.848 82.908 56.718 82.795 56.481 82.627C56.25 82.469 55.908 82.238 55.496 82.094C55.29 82.01 55.068 81.994 54.861 81.977C54.653 82.01 54.448 82.041 54.253 82.17C54.06 82.258 53.881 82.44 53.703 82.623C53.571 82.76 53.307 83.09 53.239 83.266C53.107 83.463 53.018 83.707 52.965 83.936C52.935 84.172 52.894 84.409 52.948 84.629C53.026 85.084 53.29 85.486 53.617 85.762C53.939 86.037 54.301 86.203 54.576 86.28C54.847 86.36 55.018 86.393 55.018 86.393C55.018 86.393 54.977 86.401 54.902 86.422C54.827 86.432 54.713 86.481 54.567 86.485C54.418 86.495 54.226 86.51 54.007 86.466C53.794 86.435 53.539 86.376 53.284 86.239C52.779 86.003 52.24 85.483 52.031 84.792C51.782 84.101 51.932 83.339 52.287 82.722C52.507 82.367 52.632 82.214 52.917 81.929C53.159 81.689 53.46 81.486 53.801 81.355C54.13 81.191 54.54 81.193 54.884 81.23C55.233 81.298 55.536 81.427 55.762 81.591C56.232 81.901 56.483 82.261 56.639 82.507C56.795 82.754 56.848 82.908 56.848 82.908Z" fill="#C39368"/>
<path d="M33.883 95.039C33.883 95.039 53.477 106.144 73.458 93.988C73.798 105.781 64.66 115.299 52.44 114.84C40.225 114.381 33.227 102.52 33.883 95.039Z" fill="#96172D"/>
<path d="M54.379 105.922C64.166 105.174 66.887 101.281 68.159 96.69C57.449 101.188 47.356 99.754 40.933 97.85C42.048 100.666 45.464 106.607 54.379 105.922Z" fill="white"/>
<path d="M45.275 113.102C47.404 114.108 49.8 114.739 52.44 114.84C54.644 114.924 56.743 114.672 58.71 114.15C52.421 107.375 47.349 110.973 45.275 113.102Z" fill="#E34548"/>
<path d="M106.826 80.488C106.826 80.488 105.501 76.385 108.512 74.81C111.525 73.242 112.284 76.275 112.284 76.275C112.284 76.275 110.654 74.353 108.595 76.47C106.535 78.584 106.826 80.488 106.826 80.488Z" fill="#C39368"/>
<path d="M8.103 78.25C8.103 78.25 9.78001 74.281 6.92001 72.451C4.05401 70.621 3.03201 73.578 3.03201 73.578C3.03201 73.578 4.82301 71.805 6.68701 74.092C8.56001 76.381 8.103 78.25 8.103 78.25Z" fill="#C39368"/>
<g opacity="0.5">
<path d="M110.69 40.824C110.422 49.603 104.163 34.117 104.163 34.117C104.163 34.117 103.222 42.687 101.355 42.353C99.491 42.019 91.061 29.55 91.061 29.55C91.061 29.55 92.692 44.087 88.274 42.466C83.855 40.849 81.032 26.183 81.032 26.183C81.032 26.183 76.34 40.478 74.321 39.849C72.299 39.22 75.973 29.781 75.973 29.781C75.973 29.781 60.611 41.984 57.986 40.922C55.362 39.859 60.47 31.358 60.47 31.358C60.47 31.358 34.707 47.715 30.218 46.319C25.73 44.922 32.332 33.19 32.332 33.19C32.332 33.19 19.05 48.997 14.939 47.965C10.832 46.93 13.67 33.047 13.67 33.047C13.67 33.047 6.39001 40.629 3.55701 40.24C2.74401 40.127 2.595 39.125 2.793 37.754C1.685 40.395 1.189 42.242 1.189 42.242C1.189 42.242 3.14601 42.851 5.88901 40.941C0.223008 55.636 6.79001 64.082 8.24701 65.711C9.35801 66.006 10.417 66.619 11.305 67.707C11.969 61.562 12.518 55.064 13.224 49.686C14.161 53.266 18.169 48.965 23.04 44.528C27.914 40.088 29.198 39.257 29.198 39.257C29.198 39.257 23.935 48.913 26.066 49.987C28.197 51.061 47.382 42.856 56.381 37.032C50.927 43.345 51.023 45.014 53.024 45.845C55.029 46.673 68.435 41.193 72.513 37.325C71.093 43.868 71.635 46.087 72.946 46.495C74.256 46.901 79.261 36.755 79.261 36.755C79.261 36.755 89.387 49.759 92.285 49.023C95.185 48.281 93.055 37.966 93.055 37.966C93.055 37.966 102.432 50.735 103.414 44.269C105.178 52.285 106.018 60.671 105.358 68.917C108.078 67.474 112.562 66.696 114.708 75.3C121.317 64.622 115.184 52.654 115.184 52.654C115.184 52.654 120.196 58.32 120.968 56.504C121.227 55.707 121.427 54.936 121.604 54.174C118.523 53.922 113.874 48.17 110.69 40.824Z" fill="#EC7B23"/>
</g>
<path d="M92.79 82.627C92.717 84.436 89.122 85.766 84.768 85.598C80.408 85.426 76.935 83.821 77.004 82.01C77.078 80.195 80.664 78.867 85.027 79.033C89.379 79.205 92.86 80.813 92.79 82.627Z" fill="#F9CBC0"/>
<path d="M30.717 84.815C30.645 86.625 27.05 87.954 22.694 87.786C18.334 87.616 14.861 86.009 14.932 84.196C15.004 82.386 18.592 81.053 22.954 81.225C27.306 81.391 30.786 83.002 30.717 84.815Z" fill="#F9CBC0"/>
</svg>
