<svg width="138" height="113" viewBox="0 0 138 113" fill="none" xmlns="http://www.w3.org/2000/svg">
<path d="M133.595 63.926C135.645 63.27 137.013 61.787 137.121 59.364C137.351 54.216 133.323 50.13 128.617 49.477C129.307 48.997 129.945 48.387 130.502 47.645C133.158 44.097 132.774 38.866 130.836 35.122C129.092 31.749 125.963 29.927 122.191 29.964C124.41 27.358 124.633 24.181 122.744 21.259C120.969 18.515 118.073 15.758 114.508 16.898C115.365 13.222 110.834 9.14999 108.299 7.41399C104.982 5.14099 100.919 4.646 97.275 6.42C96.331 6.878 95.561 7.53699 94.973 8.31099C94.58 4.70599 91.573 2.31799 88.284 1.11599C84.991 -0.0900126 80.684 0.356982 78.249 3.02898C77.545 3.80298 77.156 4.831 77.03 5.919C75.872 3.58 72.233 2.994 69.919 3.239C67.053 3.543 63.767 5.575 62.894 8.449C61.757 4.441 56.673 2.21599 52.686 2.55199C47.193 3.01399 42.554 7.67299 41.25 12.845C41.003 13.825 41.081 15.101 41.411 16.354C41.393 16.361 41.378 16.367 41.363 16.372C41.052 15.761 40.634 15.195 40.068 14.717C36.561 11.746 31.694 11.84 27.856 14.108C23.951 16.414 22.152 20.825 23.093 25.177C21.083 23.999 18.582 23.619 16.239 24.555C13.358 25.711 11.661 28.756 11.628 31.725C11.618 32.578 11.917 34.042 12.502 35.262C11.603 35.071 10.675 35.026 9.83301 35.137C5.65501 35.68 2.43401 39.683 1.29001 43.401C0.122008 47.196 0.307006 51.455 3.05701 54.478C4.05901 55.58 5.41601 56.23 6.88001 56.512C4.54701 58.676 4.05001 63.209 4.97701 66.154C5.99401 69.373 8.70901 71.301 11.554 71.441C9.10101 73.134 8.07901 77.133 9.05601 79.894C9.98001 82.499 11.927 83.726 14.59 84.169C15.657 84.347 16.585 84.232 17.411 83.905C17.303 84.821 17.448 85.743 18.066 86.706C19.285 88.599 21.763 89.608 23.991 89.548C25.997 89.497 28.102 88.782 29.783 87.591C29.84 91.646 30.755 95.64 33.108 99.173C34.883 101.837 37.003 104.609 39.618 106.495C42.743 108.749 46.223 109.995 49.993 110.643C53.845 111.301 57.659 111.149 61.556 111.155C74.771 111.163 89.878 109.903 101.42 102.792C104.308 101.015 107.271 98.593 109.422 95.954C111.703 93.155 113.64 89.87 114.388 86.296C114.497 85.776 114.624 85.212 114.753 84.626C115.089 85.046 115.468 85.433 115.862 85.765C118.727 88.171 123.883 87.247 126.229 84.579C128.024 82.54 128.837 79.745 128.358 77.102C128.54 77.14 128.708 77.194 128.896 77.215C131.86 77.573 134.194 76.111 135.844 73.8C137.507 71.472 136.744 67.726 135.171 65.536C134.711 64.891 134.176 64.363 133.595 63.926Z" fill="#925F2D"/>
<path opacity="0.5" d="M133.595 63.926C135.645 63.27 137.013 61.787 137.121 59.364C137.269 56.036 135.633 53.158 133.191 51.358C132.413 52.108 131.536 52.735 130.537 53.16C127.349 54.511 123.51 53.675 121.437 50.76C119.391 47.88 118.96 43.808 119.647 40.25C117.609 41.009 115.164 40.825 113.254 39.823C110.704 38.483 108.435 36.216 107.453 33.489C107.223 33.675 106.977 33.844 106.691 33.993C102.928 35.926 98.702 34.268 96.707 31.441C94.941 34.44 91.715 36.28 87.826 35.954C83.66 35.602 79.364 33.803 77.636 29.928C77.602 30.244 77.542 30.562 77.443 30.886C75.806 36.118 70.052 38.15 65.013 37.728C62.034 37.477 59.051 36.488 57.37 34.411C56.383 37.328 53.015 39.42 50.102 40.29C47.695 41.01 44.134 41.249 42.102 39.674C42.13 39.937 42.147 40.205 42.147 40.481C42.13 46.407 34.787 49.352 31.061 46.411C30.821 47.331 30.413 48.22 29.797 49.038C27.745 51.772 23.904 52.481 21.096 50.84C21.335 51.903 21.374 52.985 21.009 54.081C20.539 55.483 19.526 56.763 17.884 56.619C16.928 56.538 15.963 56.216 15.045 55.733C15.91 57.423 16.332 59.418 16.108 61.531C15.758 64.832 13.375 66.859 10.208 67.33C7.68502 67.707 5.82301 66.449 4.64001 64.598C4.71501 65.147 4.82402 65.672 4.97402 66.153C5.99102 69.372 8.70602 71.3 11.551 71.44C9.09802 73.133 8.07601 77.132 9.05301 79.893C9.97701 82.498 11.924 83.725 14.587 84.168C15.654 84.346 16.582 84.231 17.408 83.904C17.3 84.82 17.445 85.742 18.063 86.705C19.282 88.598 21.76 89.607 23.988 89.547C25.994 89.496 28.099 88.781 29.78 87.59C29.837 91.645 30.752 95.639 33.105 99.172C34.88 101.836 37 104.608 39.615 106.494C42.74 108.748 46.22 109.994 49.99 110.642C53.842 111.3 57.656 111.148 61.553 111.154C74.768 111.162 89.875 109.902 101.417 102.791C104.305 101.014 107.268 98.592 109.419 95.953C111.7 93.154 113.637 89.869 114.385 86.295C114.494 85.775 114.621 85.211 114.75 84.625C115.086 85.045 115.465 85.432 115.859 85.764C118.724 88.17 123.88 87.246 126.226 84.578C128.021 82.539 128.834 79.744 128.355 77.101C128.537 77.139 128.705 77.193 128.893 77.214C131.857 77.572 134.191 76.11 135.841 73.799C137.504 71.471 136.741 67.725 135.168 65.535C134.711 64.891 134.176 64.363 133.595 63.926Z" fill="#683C11"/>
<path d="M123.188 66.154C121.724 63.797 119.295 62.225 116.514 63.132C115.04 63.613 114.001 65.358 113.37 67.072C112.132 68.705 111.192 70.476 111.266 72.644C111.355 75.242 115.736 77.497 117.888 77.76C124.069 78.519 125.918 70.553 123.188 66.154Z" fill="#EFCAA6"/>
<path d="M34.366 71.065C33.6 70.397 32.631 69.491 31.574 68.879C30.947 68.399 30.265 68.022 29.456 67.897C27.374 67.571 25.58 69.942 24.685 71.545C21.84 76.625 24.369 83.785 30.998 81.807C33.455 81.075 35.63 80.244 36.36 77.564C36.975 75.311 36.105 72.582 34.366 71.065Z" fill="#EFCAA6"/>
<path d="M121.554 67.916C120.648 66.467 118.852 66.717 117.608 67.568C116.196 68.541 116.046 70.47 116.181 72.017C116.201 72.259 116.574 72.245 116.601 72.011C116.716 70.97 116.918 69.896 117.569 69.062C118.272 69.027 118.363 69.808 118.914 70.031C119.087 70.097 119.341 69.984 119.341 69.777C119.348 69.214 119.027 68.642 118.563 68.287C118.837 68.178 119.131 68.117 119.42 68.115C120.012 68.111 120.313 68.379 120.715 68.769C121.244 69.285 121.882 68.447 121.554 67.916Z" fill="#C39368"/>
<path d="M28.992 72.705C28.015 71.744 26.37 71.717 25.684 73.006C25.458 73.426 25.974 73.744 26.329 73.635C26.624 73.545 26.888 73.407 27.17 73.289C27.339 73.219 27.528 73.232 27.713 73.289C27.684 73.309 27.65 73.33 27.621 73.353C27.185 73.691 27.074 74.435 27.232 74.925C27.292 75.109 27.548 75.071 27.617 74.921C27.765 74.591 27.877 74.271 28.209 74.083C28.356 73.999 28.517 73.987 28.671 73.956C29.241 74.597 29.41 75.43 29.638 76.232C29.705 76.468 30.007 76.472 30.064 76.226C30.348 75.008 29.875 73.576 28.992 72.705Z" fill="#C39368"/>
<path d="M113.053 65.025C110.354 57.008 109.402 46.374 109.402 46.374C101.148 48.278 99.72 40.422 99.72 40.422C86.702 54.945 79.164 39.071 79.164 39.071C68.37 53.119 59.64 40.58 59.64 40.58C52.893 53.358 44.003 43.437 44.003 43.437C44.399 55.342 32.258 53.041 32.258 53.041C33.13 57.088 30.829 59.389 30.829 59.389C34.639 73.202 30.232 82.086 29.783 87.588C29.84 91.643 30.755 95.637 33.108 99.17C34.883 101.834 37.003 104.606 39.618 106.492C51.185 114.836 69.401 113.467 82.505 110.4C86.547 109.453 90.603 108.136 94.407 106.466C99.993 104.013 105.522 100.734 109.423 95.95C111.704 93.151 113.641 89.866 114.389 86.292C114.498 85.772 114.625 85.208 114.754 84.622C115.58 79.063 115.751 73.043 113.053 65.025Z" fill="#F4D9BF"/>
<path d="M45.711 62.733C46.46 60.637 47.857 57.915 50.061 57.362C52.423 56.769 53.971 58.204 55.338 59.835C54.608 57.699 52.78 54.858 50.148 55.751C47.519 56.64 45.353 59.536 45.522 62.341C45.532 62.522 45.606 62.649 45.711 62.733Z" fill="#C39368"/>
<path d="M80.388 56.13C80.92 55.42 81.642 54.939 82.695 54.962C82.742 54.962 82.78 54.974 82.826 54.976C85.27 54.737 87.011 56.506 88.405 58.429C88.678 58.32 88.881 58.054 88.819 57.7C88.286 54.616 84.953 53.239 82.157 53.334C79.105 53.438 78.074 57.474 78.259 59.925C78.726 58.595 79.392 57.12 80.388 56.13Z" fill="#C39368"/>
<path d="M64.617 81.756C64.613 80.641 65.442 79.676 66.596 79.678C67.311 79.678 67.8 80.104 68.204 80.649C67.39 79.459 65.898 78.7351 64.573 79.5511C63.02 80.5101 63.712 84.479 65.746 84.252C65.784 84.248 65.82 84.229 65.857 84.213C65.146 83.606 64.621 82.699 64.617 81.756Z" fill="#C39368"/>
<path d="M93.021 94.098C89.466 99.039 84.417 102.996 78.706 105.092C75.546 106.254 72.236 106.481 68.897 106.475C62.441 106.469 55.974 105.723 50.341 102.315C48.125 100.975 45.773 99.616 44.645 97.167C42.346 92.188 51.307 92.585 53.868 92.337C59.238 91.816 64.575 90.942 69.847 89.808C73.503 89.019 77.003 87.699 80.455 86.273C82.433 85.46 84.448 84.724 86.362 83.763C88.058 82.911 89.707 81.765 91.658 81.622C93.616 81.478 95.971 82.517 96.407 84.653C96.977 87.452 95.465 90.346 94.011 92.633C93.697 93.131 93.366 93.619 93.021 94.098Z" fill="#971A2F"/>
<path opacity="0.5" d="M54.653 104.379C57.856 101.627 61.251 99.086 65.044 97.234C70.086 94.765 75.482 93.0069 81.046 92.2069C85.514 91.5619 90.037 91.4369 94.487 91.8629C95.771 89.7149 96.918 87.1459 96.408 84.6519C95.972 82.5149 93.617 81.4759 91.659 81.6209C89.708 81.7639 88.059 82.91 86.363 83.762C84.449 84.723 82.433 85.4589 80.456 86.2719C77.004 87.6979 73.504 89.018 69.848 89.807C64.576 90.942 59.239 91.815 53.869 92.336C51.308 92.584 42.347 92.188 44.646 97.166C45.774 99.615 48.126 100.975 50.342 102.314C51.732 103.156 53.174 103.836 54.653 104.379Z" fill="#971A2F"/>
<path d="M60.841 95.92C65.664 96.098 70.782 95.074 75.347 93.574C79.89 92.082 85.158 90.732 88.303 86.859C89.59 85.273 90.565 83.502 91.399 81.656C89.561 81.877 87.982 82.949 86.364 83.761C84.45 84.722 82.434 85.458 80.457 86.271C77.005 87.697 73.505 89.017 69.849 89.806C64.577 90.941 59.24 91.814 53.87 92.335C53.636 92.358 53.349 92.376 53.02 92.392C55.261 94.24 57.592 95.801 60.841 95.92Z" fill="white"/>
<path d="M73.659 100.959C70.903 102.266 68.647 104.176 66.724 106.44C67.448 106.463 68.174 106.475 68.897 106.475C72.236 106.481 75.545 106.254 78.706 105.092C81.404 104.1 83.949 102.682 86.264 100.955C82.304 99.246 77.576 99.104 73.659 100.959Z" fill="#FD7072"/>
<path opacity="0.5" d="M83.314 100.01C83.106 100.397 82.886 100.776 82.63 101.141C81.173 103.233 78.453 104.307 76.048 104.805C73.708 105.287 70.711 105.78 68.469 104.59C67.86 105.174 67.277 105.791 66.724 106.44C67.448 106.463 68.174 106.475 68.897 106.475C72.236 106.481 75.545 106.254 78.706 105.092C81.404 104.1 83.949 102.682 86.264 100.955C85.318 100.547 84.327 100.234 83.314 100.01Z" fill="#FD7072"/>
<path d="M80.989 68.9C81.239 71.343 82.22 73.279 83.181 73.22C84.151 73.161 84.73 71.13 84.483 68.683C84.234 66.234 83.254 64.3 82.298 64.363C81.325 64.424 80.747 66.453 80.989 68.9Z" fill="#461A00"/>
<path d="M82.807 66.922C82.931 67.654 83.271 68.217 83.562 68.168C83.853 68.121 83.974 67.494 83.848 66.756C83.722 66.02 83.382 65.465 83.089 65.514C82.809 65.549 82.672 66.18 82.807 66.922Z" fill="white"/>
<path d="M49.084 72.85C49.334 75.293 50.316 77.228 51.276 77.169C52.248 77.11 52.825 75.08 52.578 72.633C52.331 70.182 51.349 68.25 50.392 68.313C49.42 68.373 48.842 70.402 49.084 72.85Z" fill="#461A00"/>
<path d="M50.901 70.871C51.027 71.603 51.366 72.166 51.656 72.117C51.947 72.07 52.07 71.443 51.942 70.705C51.818 69.969 51.476 69.414 51.185 69.463C50.904 69.498 50.766 70.129 50.901 70.871Z" fill="white"/>
</svg>
